<?xml version="1.0" encoding="utf-8"?>
<!-- Generator: Adobe Illustrator 23.0.3, SVG Export Plug-In . SVG Version: 6.00 Build 0)  -->
<svg version="1.1" xmlns="http://www.w3.org/2000/svg" xmlns:xlink="http://www.w3.org/1999/xlink" x="0px" y="0px"
	 viewBox="0 0 1184 130.2" style="enable-background:new 0 0 1184 130.2;" xml:space="preserve">
<style type="text/css">
	.st0{fill:#1A70B5;}
	.st1{fill:#E5E5E5;}
	.st2{fill:#166FB4;}
	.st3{fill:#1A71B5;}
</style>
<g id="Layer_1">
	<title>cbpf-cerf-logo-hi-resolution</title>
	<g>
		<g id="Layer_1-2">
			<path class="st0" d="M182.5,10.2v13.2c0,2.7,1.3,6.1,5.4,6.1s5.4-3.5,5.4-6.1V10.2h2.9v13.7c0.5,4.6-2.8,8.8-7.4,9.3
				c-4.6,0.5-8.8-2.8-9.3-7.4l0,0c-0.1-0.6-0.1-1.2,0-1.8V10.2H182.5z"/>
			<path class="st0" d="M201.5,17.3h2.7v2.2h0.1c1-1.7,2.8-2.6,4.7-2.5c2.8,0,5.2,1.7,5.2,5.5v9.3h-2.7v-8.6c0-2.7-1.6-3.7-3.3-3.7
				s-4,1.5-4,4.8v7.4h-2.7L201.5,17.3z"/>
			<path class="st0" d="M220.7,10.1c1.1,0,2,0.9,2,2s-0.9,2-2,2s-2-0.9-2-2S219.6,10.1,220.7,10.1z M219.3,17.3h2.7v14.5h-2.7
				L219.3,17.3z"/>
			<path class="st0" d="M235.1,19.7h-3.9v6.5c0,1.6,0,3.3,2.1,3.3c0.7,0,1.4-0.1,2-0.4v2.5c-0.8,0.3-1.6,0.5-2.5,0.5
				c-4.2,0-4.3-2.6-4.3-4.9v-7.5h-3.2v-2.4h3.2v-4h2.7v4.1h3.9L235.1,19.7z"/>
			<path class="st0" d="M240.8,25.5c0,2.5,2.4,4.2,4.9,4.2c1.6-0.1,3-0.9,3.9-2.2l2.1,1.6c-1.5,2-3.9,3.1-6.4,3
				c-4.6,0-7.4-3.3-7.4-7.6c-0.1-4,3-7.4,7-7.6h0.5c5.1,0,7.1,3.9,7.1,7.6v1H240.8z M249.4,23.3c-0.1-2.4-1.4-4.2-4.2-4.2
				c-2.4,0-4.3,1.8-4.5,4.2H249.4z"/>
			<path class="st0" d="M271,31.8h-2.8v-2.1l0,0c-1.2,1.6-3,2.5-5,2.5c-4.5,0-7.4-3.3-7.4-7.6s2.9-7.6,7.4-7.6c2-0.1,3.8,0.8,5,2.4
				l0,0V8.7h2.8V31.8z M268.2,24.6c0-2.9-1.8-5-4.7-5s-4.7,2.1-4.7,5s1.8,5,4.7,5S268.2,27.5,268.2,24.6L268.2,24.6z"/>
			<path class="st0" d="M291,10.2h3.8l11.9,17.7h0.1V10.2h2.9v21.6H306L294,14h-0.1v17.8H291V10.2z"/>
			<path class="st0" d="M315.1,19.1c1.6-1.4,3.6-2.1,5.7-2.1c4.3,0,6,2.3,6,4.8v7.4c0,0.9,0,1.7,0.1,2.6h-2.4
				c-0.1-0.7-0.1-1.5-0.1-2.2h-0.1c-1.1,1.7-3,2.7-5,2.6c-2.7,0-5-1.5-5-4.3s3.6-5,7.9-5h2v-0.6c0-1.7-1.3-3-3-3l0,0h-0.4
				c-1.5,0-3,0.6-4.1,1.6L315.1,19.1z M322.8,24.8c-2.6,0-5.7,0.5-5.7,2.8c0,2.3,1.2,2.3,3.1,2.3c2.1,0.1,3.9-1.5,4.1-3.6v-1.5
				H322.8z"/>
			<path class="st0" d="M339.6,19.7h-3.9v6.5c0,1.6,0,3.3,2.1,3.3c0.7,0,1.4-0.1,2-0.4v2.5c-0.8,0.3-1.6,0.5-2.5,0.5
				c-4.2,0-4.3-2.6-4.3-4.9v-7.5h-3.2v-2.4h3.2v-4h2.7v4.1h3.9L339.6,19.7z"/>
			<path class="st0" d="M344.9,10.1c1.1,0,2,0.9,2,2s-0.9,2-2,2s-2-0.9-2-2S343.8,10.1,344.9,10.1z M343.5,17.3h2.7v14.5h-2.7V17.3z
				"/>
			<path class="st0" d="M358.2,17c4.2,0,7.6,3.5,7.6,7.7s-3.5,7.6-7.7,7.6c-4.2,0-7.6-3.5-7.6-7.7c0-4.2,3.4-7.6,7.6-7.6H358.2z
				 M358.2,29.6c2.5,0.1,4.7-1.9,4.8-4.4v-0.6c0-2.9-1.8-5-4.8-5s-4.7,2.1-4.7,5S355.3,29.6,358.2,29.6z"/>
			<path class="st0" d="M370.1,17.3h2.8v2.2h0.1c0.9-1.7,2.8-2.7,4.7-2.6c2.8,0,5.2,1.7,5.2,5.5v9.3h-2.7v-8.5
				c0-2.7-1.6-3.7-3.3-3.7s-4,1.5-4,4.8v7.4h-2.8L370.1,17.3z"/>
			<path class="st0" d="M395.5,20.9c-0.7-0.9-1.8-1.4-3-1.4c-1.3,0-2.4,0.6-2.4,1.6s2.5,2,3.7,2.2s4.2,1.5,4.2,4.2
				c0,2.7-3,4.5-5.8,4.5c-2.2,0.2-4.3-0.8-5.6-2.6l2.1-1.7c0.9,1,2.1,1.7,3.5,1.7c1.4,0,2.9-0.6,2.9-1.8s-2.3-1.9-3.5-2.2
				s-4.4-1.3-4.4-4.1s2.8-4.3,5.5-4.3c1.9-0.1,3.8,0.8,4.9,2.4L395.5,20.9z"/>
			<rect x="419.7" y="10.3" class="st0" width="2.2" height="107.5"/>
			<path class="st0" d="M88.8,67.7c-0.4-0.2-0.8-0.1-1.1,0.2l-0.9,0.7c0,0-0.3,0.3-0.1,0.5s0.7-0.3,0.7-0.3l0.9-0.5l0.5-0.3
				c0,0,0.6-0.2-0.1-0.5 M112,56c-0.1,1.5-0.2,3-0.5,4.5c0.2,0.5,1.2,1.2,1.3,1.7s-0.9,1.3-1.2,0.8l-0.5-0.4
				c-1.4,5.4-4.1,10.3-7.9,14.4l2.7,2.7c0.1-0.3,0.1-0.5,0.1-0.8c-0.1-0.9,0.2-1.2,0.4-1.2c0.8,0,1.5,0.5,1.8,1.2
				c0.1,0.4,0.2,0,0.4,0.7c-0.1,0.4,0,0.8,0.1,1.2l0.3,0.7c0,0.3,0,0.5-0.1,0.8c6.7-7.1,10.6-16.4,11-26.2L112,56z M102,88
				c1.6-1,3.1-2.2,4.5-3.5l-0.2-0.2c-0.2,0.1-0.5,0-0.7-0.1c-0.2-0.3-0.3-0.6-0.4-0.9l-4.1-4.1l-0.9,0.9v1c2.6,1.2,3.2,2.3,3.1,2.8
				s-1.8,2.1-1.8,2.5s0.7,0.9,0.6,1.3L102,88z M80.1,88.2v7c2.1-0.1,4.2-0.3,6.2-0.7c-0.5-0.5-1.2-0.9-1.9-1.1
				c-0.6-0.6-1-1.3-1.2-2.1c-0.4-1.1,0.8-1.2,0.5-2s-2.8-0.5-2.8-0.5S81.2,89.3,80.1,88.2L80.1,88.2z M77.1,87.6
				c-7.5-0.3-14.8-3.1-20.5-8l0.9,0.9c1.6,1.4,1.8,2.2,1.7,2.9S55.7,84,55.7,84h-0.1c-1.2,0.6-2.4,0.8-3.7,0.8
				c-0.3-0.1-0.6-0.3-0.9-0.5l-0.3,0.3c7.3,6.5,16.6,10.3,26.4,10.6V87.6z M45.3,58.9C45.2,58,45.1,57,45,56.1h-7.8
				c0.2,3.7,0.8,7.4,2,10.9h0.1c0.3-0.2,0-0.3,0.2-0.8s0.5,0,0.6-0.3S40,65.5,40,65.2s0.4-0.4,0.4-0.6s-0.2,0.2-0.3-0.5
				c0-0.5,0.1-1,0.3-1.5l0.6-1.3c0.3-0.7,1.7-1.1,2.1-1.6s0.4-0.9,1.2-1.1C44.6,58.6,45,58.7,45.3,58.9z M45,53.1
				c0.4-7.9,3.6-15.4,9-21.1l-5.4-5.5c-7,7.1-11,16.6-11.4,26.6H45z M56.1,29.9c5.8-5.2,13.2-8.2,21-8.5v-7.6
				c-9.8,0.3-19.2,4.1-26.4,10.7L56.1,29.9z M80.1,21.4c6.1,0.3,11.9,2.2,17,5.5l-0.5-1c-0.1-0.2,0.4-0.4,0.4-0.4s-1.1-1.7-0.8-2
				s1.2,0.5,1.7,1.3s1.1,1.5,1.5,1.6s1.2,0,1.4,0.8c0.3,0.6,0.5,1.2,0.7,1.9v0.4l2.3-2.2c-0.2-0.6-0.7-1.1-1.3-1.4l-1.6,0.5
				c0,0-0.6,0.3-0.8-0.1c-0.1-0.4-0.1-0.9-0.1-1.3c0,0-0.6-0.4-0.6-0.7s0.3-1.4,0.1-1.8c-0.2-0.3-0.5-0.5-0.8-0.7
				c-0.1-0.6-0.3-1.3-0.5-1.9c-0.5-0.6-1-1.2-1.6-1.7v-0.3c-5.2-2.5-10.8-3.9-16.5-4.1V21.4z M103.3,32.2l0.6,0.7l1.7,2.1l0.8,1.1
				l0.8-0.5c0.5-0.3,0.8,0,0.9,0.6s-1,0.6-0.6,1.2s1.1-0.1,1.2,0c0.2,0.3,0.1,0.7-0.1,0.9c-0.2,0.3-0.5,0.4-0.5,0.6l0.3,0.6
				c0.4,0.2,1.2-0.2,1.2,0.5s0.6,1.4,0.7,2.1c0,0.4-0.1,0.8-0.3,1.1c0.3,0.8,0.6,1.7,0.8,2.5c0.2-0.2,0.4-0.2,0.7-0.2v1.2
				c0,0.4-0.1,0.9-0.2,1.3l0.2,1.2c0.1,0.5,0.2,1.1,0.3,1.6h-0.1c0.1,0.7,0.1,1.3,0.1,2h7.8c-0.2-5-1.3-10-3.3-14.6h-0.4
				c-0.3,0.3-0.7,0.4-1.1,0.5c-0.5,0-0.8-0.6-0.8-0.6s-2.2-2.9-2.5-3.1c-0.3-0.3-0.8-0.5-1.2-0.5c-0.9-0.1-0.7-0.5-0.7-0.5l-1.8-0.7
				l-0.6-1.3c0,0,0.1-0.5,0-0.6c-0.5-0.1-1.1-0.2-1.6-0.2l-1-0.7l-1.3,1.3C103.4,31.9,103.4,32.1,103.3,32.2z M133.7,54.5
				c0,30.1-24.7,54.5-55.3,54.5S23.3,84.6,23.3,54.5S48,0,78.5,0S133.8,24.4,133.7,54.5L133.7,54.5z M78.7,45.3L78.7,45.3l-2.1,0.2
				c0.2,0.1,0.3,0.2,0.2,0.4c0,0.6,0.1,1.2,0.3,1.7l-3.4,1.8c-0.1,0.5-0.4,1-0.9,1.3c-0.5,0.2-0.8,0.6-1.1,1
				c-0.3,0.4-0.2,0.8-0.4,1.4s0.2,0.8,0.1,1.1c-0.1,0.6-0.3,1.1-0.5,1.7c-0.2,0.3-0.7-0.1-1-0.2s-0.5-1.6-0.7-1.8h-0.1v0.6
				c0,0.6,0.1,1.3,0.2,1.9c0.4-0.1,0.3-0.3,0.4-0.3s0.4,0.6,0.8,0.6s0.7-0.2,0.7-1c0-0.5,0.4-0.9,0.9-0.9l0,0h0.2
				c0.3,0,0,0.6,0.2,0.8s0.4,0,0.4,0.5s-1,1.1-1.1,1.9s-0.3,1-0.7,1s-0.4-0.9-0.6-0.4s0.6,1.3,0.6,1.3c0.4-0.3,0.7-0.7,0.9-1.2
				c0.2-0.4,0.6-0.3,1-0.6c0.4-0.5,0.5-1.2,0.4-1.8c-0.1-0.3,0.5-0.2,2.5-0.3s1.9,0.5,1.8,1.1S78,57,78,57.6s-0.8,1.2-1,1.8
				s0.3,0.6,0,0.8c-0.2,0.1-0.3,0.3-0.4,0.5c-1.1,1.3-1.2,0.5-1.9,0.8c-0.5,0.2-1,0.3-1.5,0.2H73c1.6,1.2,3.6,1.8,5.6,1.8H80
				c0.2-1.1,0.6-2.8,1.4-3.2s1.9,0.3,2.3,0c0.3-0.2,0.6-0.5,0.7-0.9c0.2-0.5,0.3-1.1,0.2-1.7c-0.2-0.6-0.6-0.3-0.8-0.8
				s0.8-0.4,0.3-1s-0.6-1.5-0.8-1.7s-0.4,0-0.7-0.3s0.1-0.7,0.2-1.1s0.7-0.5,0.6-0.9s-0.5,0-0.6-0.5c0-0.4,0.1-0.8,0.3-1.1
				c0,0-1.1,0-1.2-0.4c-0.5-1.5-2.1-2.3-3.5-1.8c0,0,0,0,0,0l0,0c-0.3-0.5-0.6-0.9-1.1-1.2c0,0-0.2-0.9,0.1-1.3s1.2,0,1.3-0.1
				S78.7,45.4,78.7,45.3L78.7,45.3z M110.8,24.5c1.7,1.8,3.3,3.8,4.7,5.9c0.5,0.4,0.9,0.9,1.2,1.5v0.5l0.4,0.6l0.2,0.2
				c0.5,0.5,0.9,1.1,1.1,1.8c0.2,0.3,0.3,0.7,0.3,1.1c2.5,5.3,3.9,11.1,4.1,17h8c-0.4-12.8-5.5-24.9-14.4-34.1L110.8,24.5z
				 M81.3,10.9c6.3,0.4,12.5,2.1,18.1,5l1.5-0.6h0.2l1.4,0.3c0.9,0.3,0.9,0,1.3,0.2s0.4,0.7,0.9,1.1s0.4,0,0.9,0.3
				c0.6,0.4,1.1,1,1.5,1.6c0.2,0.4,0.5-0.2,0.9,1.8l1.1,1.2l5-5C104.7,8.3,92.7,3.4,80.1,3v6.4h0.4c0.6,0.3,0.8,0.3,0.8,0.9
				L81.3,10.9z M48.5,22.3c7.9-7.1,18-11.2,28.6-11.5V3C64.4,3.3,52.3,8.2,43,16.8L48.5,22.3z M34.2,53.1c0.4-10.7,4.7-21,12.2-28.7
				l-5.6-5.6c-9,9.2-14.2,21.4-14.5,34.3H34.2z M46.4,84.6l-2.7-3.1c-0.8-0.3-0.7-0.5-1.5-1.2s-0.4-1.4-0.8-1.6s-0.2,0.3-0.3,0.4
				c-0.3,0.2-0.7,0.2-1,0c-0.4-0.2-0.8-0.5-1-0.9c-0.5-0.4-0.9-1-0.9-1.7c-0.1-0.2-0.7,0-1-0.1s-0.3-0.6-0.6-0.7
				c-0.2-0.1-0.5-0.2-0.8-0.1L34.7,74c0,0,0,0.8-0.7,0.8s-1.6-1.5-1.9-1.6s-0.5,0.3-0.9,0c-0.4-0.6-0.7-1.3-0.9-2
				c-0.1-0.4-0.3-0.8-0.5-1.1c-0.1-1,0-1.9,0.2-2.9c0.2-0.5,0.4,0,0.6-0.8c0-0.5,0.5-0.8,1-0.8c0,0,0,0,0,0h0.2
				c0.3-0.1,0.6,0.1,0.7,0.4l0,0c0.2,0.3,0.7,0,1-0.1s0-0.5,0-0.7s0.6-0.1,1-0.3s1-0.3,1.1,0l0,0C34.7,62,34.3,59,34.2,56h-8
				c0.4,12.8,5.6,25,14.6,34.2L46.4,84.6z M77.1,98.2c-10.6-0.3-20.7-4.4-28.5-11.5L43,92.3c9.3,8.5,21.4,13.4,34.1,13.7L77.1,98.2z
				 M108.6,86.6c-2.5,2.3-5.2,4.2-8.1,5.9v0.2c-0.6,1.2-1.3,2.3-2.1,3.3c-0.3,0.5-0.5,0.2-1.1,0.7s-0.3,0.9-1,1.2l-1.2,0.5
				c-1.1,1.2-2.9,1.2-4.1,0.1c0,0,0,0,0,0l0,0l-0.2-0.2c-0.4-0.3-1.1-0.4-1.5-0.9L89,97.1c-2.9,0.7-5.8,1.1-8.7,1.2v7.7
				c12.6-0.4,24.7-5.3,34-13.8L108.6,86.6z M122.8,56c-0.4,10.7-4.7,20.8-12.1,28.5l5.6,5.6c8.9-9.2,14.1-21.3,14.5-34.1H122.8z
				 M104.5,53h4.5c-0.1-1.2-0.2-2.5-0.4-3.7c-0.2,0.4-0.4,0.7-0.7,1c-0.5,0.5-1,0.2-1.5,0.5s-0.1,0.7-0.2,1.1s0.5,0.2,0.2,0.7
				s-0.7,0.2-1,0.2S104.9,52.6,104.5,53z M95.5,39.6l1.2,1.4c0.3-0.2,0.6-0.2,0.9-0.1l3,0.5c0.9,0.1,1.1,1.7,1.6,1.9
				s0.4,0.4,0.4,0.9s-0.4,0.3-0.3,0.7s0.4,0.7,0.7,0.3c0.5-0.6,1.2-0.8,1.9-0.7c1.5,0.3,1,1.1,1.6,1.3s0.4,0.3,0.6,0.6
				s-0.1,0.6-0.4,0.7s-0.3,0.4-0.3,0.6s-0.3,0.6-0.4,0.8s-0.3,0.9,0,0.9s0.6,0.3,0.8,0s1.4-1.5,1.4-2.1v-0.2
				c-0.3-1.2-0.7-2.4-1.2-3.6l-0.5-0.6c-1-0.5-1.9-1.2-2.8-1.9c-0.3-0.5,0.1-0.6,0.4-1c0.4-0.4,0.5-0.9,0.4-1.4l-0.6-0.8l-1.8-2.5
				l-1.1-1.2L95.5,39.6z M80.1,32.2c4.9,0.3,9.6,2.3,13.3,5.5l5.6-5.6c-5.2-4.6-11.8-7.3-18.8-7.7L80.1,32.2z M63.7,37.5
				c3.8-3.2,8.5-5.1,13.4-5.4v-7.7c-7,0.3-13.6,3-18.9,7.6L63.7,37.5z M60,41.6l1.6-2l-5.5-5.5c-4.9,5.1-7.7,11.8-8,18.9h3.4
				c-0.2-0.3-0.3-0.6-0.3-1c0.1-0.4-0.2-1.8-0.1-2c0.2-0.3,0.4-0.5,0.6-0.7c0.2-0.2,0-0.6,0.1-0.8l0.7-0.9c0.3-0.3,0.2-1.1,0.9-1.4
				s0.9,0.1,1.4,0s0.5-0.7,0.5-0.7s-0.2-0.2,0.1-0.7s2.1-0.9,2.1-0.9s0-0.5,1.1-1.4C59,42.1,59.5,41.8,60,41.6z M55.9,53.1
				c0-0.3,0-0.7,0.1-1l-0.9-0.2c-0.8,0-1.6,0.5-1.5,1.2H55.9z M50.6,56.1H48c0.1,1.9,0.4,3.7,0.8,5.5c0.3-0.1,0.5-0.4,0.4-0.7l0,0
				c0-0.3,0.4-0.2,0.6-0.5s0.1-0.3,0-0.4c-0.3-0.2-0.5-0.5-0.6-0.9c-0.1-0.5,0.3-0.8,0.4-1.4s0-0.7,0.2-1.1S49.8,56.6,50.6,56.1
				L50.6,56.1z M61.6,69.5c-2.6-2.9-4.5-6.5-5.3-10.3h-0.2c-0.1-0.4-0.5-0.5-0.9-0.4L55,60.5c0,0.1-0.1,0.9-0.5,0.9
				c-0.2-0.1-0.4-0.3-0.5-0.5c0,0-0.6,0.1-0.7-0.1s-0.6-0.7-0.1-1.2s0.5,0.5,0.9,0s-0.5-2.7,0.2-2.7s1.1,1,1.2,1l0.5-0.2
				c-0.1-0.5-0.1-1-0.1-1.5h-3.4c-0.2,0.4-0.1,1.6-0.4,1.8s-1.6-0.2-1.7,0.6s0.4,0.6,0.4,1.4s-0.4,0.3-0.1,1.1s1.5,1,1.7,1.9
				c0.1,0.5,0.3,1,0.6,1.5c0.1,0.2-0.5,0.7-0.1,1.3c0.4,0.6,0.7,1.3,0.7,2c-0.1,1,0,2,0.3,3c0.4,1.6,0.4,0.6,1,1.6
				c0.2,0.5,0.3,1.1,0.3,1.6l0.9,1L61.6,69.5z M73.4,76.4c-3.6-0.8-6.9-2.4-9.7-4.8L58.3,77c4.3,3.8,9.6,6.3,15.3,7.2L72,83.3
				c-0.3-0.6-0.7-1.2-1.2-1.7c-0.5-0.4-0.7-1.1-0.7-1.7c0.3-0.1,0.6-0.3,0.7-0.6c0.2-0.8,0.6-1.6,1.2-2.2L73.4,76.4z M91,73.2
				l-1,0.6h0.1c0.6,0.2,3,0.5,3.7,1.1c0.6,0.4,1.2,0.7,1.9,0.8l1.8-0.2l-1-1L95.2,74c-1-0.5-0.8,0.2-1.7-0.3
				C92.7,73.4,91.9,73.2,91,73.2z M108.3,61.3c0.4-1.7,0.7-3.5,0.8-5.3h-4.6l0.9,0.7c0.5,0.5,0.3,1,0.4,1.5s0.5,0.4,1.2,1.1
				s0.7,1.4,1,1.8L108.3,61.3z M96.5,68.2L96,68.8h0.1c0.4-0.3,0.7,0.2,1-0.3c0.3-0.5,0.3-0.9,0.6-1.2c0.5-0.3,1-0.5,1.6-0.4
				c0.5,0.1,0.5-0.2,0.8,0.7c0.2,0.5,0.3,1.1,0.2,1.7c0.2,0.2-0.4,0.9-0.5,2.3s-0.4,0.3-0.4,1.3V73l0.5,0.5l0.2-0.4
				c0.3-0.8,0.8-1.2,1.1-0.8c0.2,0.6,0.4,1.3,0.5,1.9c2.8-3.2,4.9-6.9,6.2-10.9h-0.2l-2.3,0.4h-1.8c0,0-0.5-0.5-0.7-0.2
				s-0.4,1.2-1.2,1s-0.4-1-0.6-1.1s0,0.3-0.3,0.8l-1.2,1.9c-0.1,0.3-1.7,0.3-1.9,0.7C97.4,67.4,97,67.9,96.5,68.2L96.5,68.2z
				 M89.9,63.7l2.2,2.2c0-0.5-0.1-0.9-0.3-1.3l-1-0.5l-0.4-0.3l0.2-0.5h-0.3L89.9,63.7z M88.6,71.2l1-0.6c-0.3,0-0.6,0.1-0.8,0.4
				L88.6,71.2z M65.9,69.4c2.8,2.3,6.3,3.8,9.9,4.3v0.4l0.6,0.2c0.6,0.1,1.1-0.1,1.5-0.5c0.5-0.5,0.4-0.1,0.8-0.2l0.7-1.1
				c0.4-0.2,0.5-0.7,0.7-0.7v2.1c2.6-0.2,5.1-0.9,7.4-2.1c-0.4,0-1-0.7-1.1-0.7s0.2,0.8,0.2,1s-1.1,0.6-1.3,0.4s-1-0.7-1-0.6
				c-0.2,0.3-0.4,0.5-0.6,0.8c-0.7-0.2-1.4-0.6-1.9-1.1C81.3,71,81,71.3,81,71.3c-0.3,0.2-0.6,0.4-1,0.5c-0.3,0.1-0.4,0.6-0.7,0.7
				l-0.7,1.1c-0.4,0.1-0.3-0.3-0.8,0.2c-0.4,0.4-0.9,0.6-1.5,0.5l-0.6-0.2v-0.4c-0.1-0.3-0.1-0.5-0.1-0.8c0-0.7,0.1-1.3,0.4-1.9
				c0.2-0.3,0.7-0.1,1.1-0.1v-4.3c-2.2-0.2-4.3-1.1-6.1-2.4L65.9,69.4z M66.4,56.9v-0.6c-0.2,0.2-0.9,0.1-0.8,0.5
				S65.9,56.9,66.4,56.9L66.4,56.9z M59.4,59.4c0.8,2.9,2.3,5.6,4.3,7.9l5.2-5.2l-0.6-0.8l0,0c-0.5,0.2-0.1,0.9-0.4,1.1
				c-0.3,0.2-0.5,0.5-0.6,0.8c-0.1,0.3-1,1.1-1.4,0.7s-0.1-2.4-0.7-2.4s-0.1,0.2,0,0.9s-0.4,0.4-0.6,0.3l-1.1-0.8
				c-0.6-0.5-0.2-0.9-0.2-0.9s-0.5-0.4-0.7-0.4s-0.1,0.4-0.5,0.2s-0.4-0.9-0.4-0.9c-0.5,0-1-0.1-1.5-0.3L59.4,59.4z M77.1,35.2
				C73,35.5,69,37,65.8,39.7l3,3c0.5,0.1,0.4,0.5,1,0.7s0.5-0.1,1-0.2s0.2,0.3,0.3,0.5s0.5-0.2,0.5-0.2c0.3,0.1,0.6,0.1,0.9,0
				c0.6-0.2,0.3-0.6,0.5-1c0.2-0.3,0.2-0.7,0.2-1c0-0.4,0.6-0.9,0.8-1.2s0.5-0.2,0.7,0.1s-0.2,0.5-0.1,0.8s1-0.1,2.4-0.3L77.1,35.2z
				 M90.8,39.4c-3.1-2.4-6.8-3.9-10.7-4.2v5.7c0.7,0.1,1.4,0.3,2,0.6h0.2c0.4-0.7,1-1.1,1.8-1.2c0.3-0.2,0.2-0.4,0.5-0.8
				s0.9,0.1,1,0.4c0.1,0.9-0.1,1.8-0.6,2.6c-0.4,0.5-0.9,0.8-1.5,1c0.9,0.4,1.7,0.9,2.5,1.5l0.6-0.5v-0.3l0.6-0.4l2.5-2.5h-0.2
				C89.2,41,88.4,41,89.9,40L90.8,39.4z M94,42.4l-0.5-0.6l-0.6,0.5c0.3,0.4,0.8,0.9,0.7,0.7S93.8,42.9,94,42.4z M103.3,13.7
				c0.4-0.3,0.5,0.1,0.9,0.2s0.4-0.3,1,0c0.5,0.2,0.8,0.6,0.8,1.1c0.1,0.3,0.2,0.7,0.4,1c0.1,0.3-0.6,0.7-1.1,0.4
				c-0.4-0.3-0.7-0.6-0.9-1l-1.2-0.9C103,14.3,103,13.9,103.3,13.7L103.3,13.7z M80.9,8.8c0,0,0.3-0.4,0.6-0.3h1l1.7-0.6l1.4-0.6
				L86.1,7c1.4-0.2,2.8,0.3,3.9,1.2l0.5,0.4l-0.2,0.5c-0.5,0.3-1.1,0.6-1.7,0.8c-0.4,0-0.8,0-1.2-0.1l-1.1-0.2l-2.2,0.6
				c-0.5,0.1-1.1,0-1.6-0.1L82,9.9l-1-0.8L80.9,8.8 M104,32.9l1.6,1.9v0.3L104,32.9"/>
			<path class="st0" d="M107,112.1c0.3,0,4.3-0.8,10.5-1.5s8.8-0.4,13.3-1.5c3.4-0.8,6.5-2.6,8.8-5.3c0,0,0.3-0.1,0.2,0.2
				c-2.4,4.3-6,7.7-10.4,9.8c-5.2,2.4-11,3.2-16.7,2.3c-1.9-0.4-4.6-1.2-7.4-2c-2.6-0.8-5.4-1.2-8.1-1.4c0,0-0.2-0.3,0.4-0.4
				c2.3-0.4,4.5-1,6.7-1.9c3.9-1.8,7.2-5.7,9.8-8.1s6.9-6.8,9.4-7.9c0,0,0.2,0,0,0.3c-1.2,1.6-2.2,3.4-3,5.2c-0.9,2.6-2.3,5-4.1,7.1
				C114.5,109.1,112,110.9,107,112.1C107,112,106.7,112.2,107,112.1 M151.5,84.9c-1,5.4-3.8,10.3-8,13.9c-5.4,4.9-9.9,6.7-12.5,7.3
				s-5.2,0.9-7.5,1.4c-2.2,0.4-4.3,1-6.4,1.7c0,0-0.2,0.1-0.1-0.1c1.4-1.1,2.6-2.4,3.6-3.9c2.5-3.3,4.7-11,4.7-11
				c0.7-2.3,1.6-4.5,2.6-6.6c1.8-3.3,3.9-6.4,6.3-9.2c0.8-0.6,0.4-0.2,0.3,0c-0.6,1.4-1.1,2.9-1.5,4.4c-0.9,4.3-1.1,8.7-1.7,10.4
				c-0.7,2.7-1.9,5.2-3.5,7.4c-1.3,1.6-2.7,3-4.3,4.3c-0.4,0.2,0.1,0.2,0.1,0.2c1.1-0.7,2.2-1.4,3.3-2.2c1.8-1.5,3.6-2.8,5.6-4
				c2.7-1.6,5.5-2.3,10.7-5.3c3.6-1.9,6.4-5,8.1-8.7C151.3,84.9,151.4,84.4,151.5,84.9L151.5,84.9z M139.2,62.7
				c-0.2,1.3-0.2,2.7-0.1,4c0.2,1.7,2.1,8.7,2,12.4c0,3.7-1.2,7.3-3.3,10.4h0.2c0,0,4-5.6,5.9-8s5.9-6.1,7.8-8.3
				c2.3-2.7,3.8-6,4.3-9.5h0.1c0.5,4.2,0,8.5-1.6,12.4c-1.6,3.9-4.1,7.3-7.3,10c-3.2,2.6-6.7,5-10.3,7.1c-1.7,1-3.4,2.1-4.9,3.4
				c0,0-0.2-0.1-0.2-0.2c1.1-2.1,2-4.3,2.7-6.6c0.6-3.2,1-6.4,1.2-9.6c0.2-3.1,1.1-14.2,3.2-17.7L139.2,62.7z M138.2,45.3
				c-0.1-0.2-0.4-0.5-0.4,0c0,3.9,0.5,7.9,1.5,11.7c1,4,3.6,12.5,3.9,13.7c0.5,2.7,0.5,5.6,0,8.3c0,0,0,0.5,0.3,0.2
				c1.3-2.1,2.7-4.1,4.2-6c1.4-1.6,4.8-5.8,5.7-8c2-4.3,3-9.1,2.8-13.9c-0.1-3.4-0.8-6.8-2.1-9.9c0,0-0.3-0.2-0.2,0.1
				c0.3,1.9,0.3,3.7,0.1,5.6c-0.4,2.5-1.2,5-2.4,7.3c-1.4,3.1-2.8,6.7-3.2,7.9c-0.5,2-0.9,4-1.2,6.1c-0.2,1.2-0.6,2.4-1.2,3.5
				l-0.2-0.2c0.7-1.6,1-3.4,1-5.2c0.1-3.3-0.8-6.5-2.4-9.3C142.7,54.4,138.4,48.1,138.2,45.3L138.2,45.3z M145.6,21.6
				c-0.3-0.3-0.2,0.1-0.2,0.1c1.5,2.5,2.2,5.3,2.1,8.2c-0.1,5.2-0.9,5.5-1,10.1c0,3.4,0.2,6.9,0.6,10.3h-0.3
				c-0.2-2.2-0.7-4.3-1.6-6.3c-1.8-3.9-9.1-9.8-9.1-9.8s-2.5-2.4-2.7-3.7s-0.4,0-0.4,0c0.6,2.9,1.5,5.7,2.7,8.4
				c2.1,4.6,6.8,9.2,8.2,12s2.2,3,3.3,8.2h0.2c0.2-2.4,0.8-4.8,1.7-7c1.6-4.8,2-4.3,2.9-8.8c0.6-3.2,0.6-6.6-0.1-9.8
				C151.6,32.6,150,26.3,145.6,21.6L145.6,21.6z M144.7,40.4c-0.7-1.4-1.6-2.7-2.7-3.9c-1.3-1.5-2.8-2.9-4.3-4.2
				c-2-1.6-4.2-3-5.6-4.3s-5.9-7.4-5.8-11.7c0.9,1.6,1.9,3.1,3.2,4.4c1.8,1.8,6.4,4.3,8.2,6c2.1,1.8,3.8,4.1,4.7,6.7h0.3
				c0,0-2-5.3-2.5-7.3c-0.5-2.8-1.2-5.7-2.1-8.4c-0.7-2.4-2.3-4.5-4.5-5.9l0.2-0.2c0,0,7.8,1.2,10.8,11.5c0.9,3-0.1,9.9,0.1,12.6
				s0.3,4.5,0.3,4.5L144.7,40.4z M118.5,4.7l5.1,1.8c3,1,5.7,2.7,7.9,4.9c2.7,3,4.6,6.6,5.4,10.5c0.2,0.9,0.6,1.8,1.1,2.6
				c0.1,0-0.1,0.2-0.1,0.2s-6.8-5.4-8.9-7.7s-4.4-6.4-6.2-8.1L118.5,4.7z M30.7,117.3c0,0,6.7,7.7,16.7,7.8c4.8,0,9.5-1.5,13.4-4.3
				c2.8-2,5.7-3.9,8.7-5.6c2.5-1.2,6.2-0.2,6.2-0.2c-2.9,1.1-5.6,2.6-8.1,4.4c-3.4,2.3-6.5,5-9.4,7.9l3.4,2.9
				c2.1-2.8,4.5-5.3,7.2-7.5c4.7-4,7.4-5.5,10.3-6.7c6.7,3.4,12.6,8.1,17.3,14l3.4-2.9c0,0-7.8-8-17.4-12.2c0,0,0.9-0.6,5-0.1
				c1.8,0.2,3.5,1.6,5.5,3c2.7,2,5.5,3.7,8.5,5.2c2.9,1.2,5.9,1.8,9,1.9c6.5-0.1,12.7-3,16.9-8c0,0,0-0.2-0.2-0.1
				c-3.6,1.8-5.6,3.2-11.6,3.1c-4.3-0.3-8.5-1.4-12.4-3.4c-5.1-2.4-8.6-3.9-14.7-4s-8.9,1-9.5,1.2s-2.8-1.3-8.2-1.3
				c-4.6,0-9.2,1.1-13.4,3.1c-3.1,1.5-8.9,4.8-15.7,4.7c-3.7,0-7.4-1.1-10.6-3.1C30.8,117.1,30.7,117.2,30.7,117.3z M51,112.4
				c-0.3,0-4.4-0.8-10.6-1.5s-9-0.3-13.5-1.4c-3.4-0.8-6.4-2.6-8.7-5.2c0,0-0.3-0.2-0.2,0.1c2.4,4.3,6,7.7,10.4,9.8
				c7.2,3.6,15.2,2.5,17.1,2.1s4.6-1.2,7.4-2c2.7-0.8,5.4-1.3,8.2-1.4c0,0,0.2-0.4-0.4-0.4c-2.3-0.2-4.6-0.8-6.7-1.9
				c-5.5-2.8-7.4-5.5-10-7.9s-7-6.7-9.5-7.8c0,0-0.2,0,0,0.3c1.2,1.6,2.2,3.4,3,5.2c0.9,2.6,2.3,4.9,4.1,7c1.9,2.1,4.6,3.9,9.6,5
				C51,112.2,51.3,112.4,51,112.4z M6.1,85.4c1.1,5.4,3.9,10.3,8.1,13.9c5.4,4.9,10.3,6.8,12.9,7.3l7.5,1.3c2.1,0.4,4.2,0.9,6.2,1.6
				c0,0,0.2,0.1,0.1-0.1c-1.3-1.2-2.5-2.5-3.5-4c-2.5-3.3-4.8-11-4.8-11c-0.7-1.9-1.4-3.8-2.3-5.7c-1.3-2.7-5.9-9.3-6.7-9.9
				s-0.4-0.2-0.3,0c0.6,1.4,1.2,2.8,1.5,4.3c0.5,2.6,1.3,8.7,1.9,10.4c0.7,2.7,1.9,5.3,3.6,7.6c1.2,1.6,2.7,3.1,4.3,4.3
				c0.4,0.2-0.1,0.2-0.1,0.2c-1.2-0.7-2.4-1.5-3.5-2.3c-1.4-1.3-3-2.4-4.6-3.4c-2.8-1.6-6.4-2.8-11.6-5.9s-7.3-6.4-8.4-8.7
				C6.4,85.4,6.1,84.9,6.1,85.4L6.1,85.4z M18,63.3c0.2,1.4,0.3,2.7,0.2,4.1c-0.2,1.7-1.9,8.6-1.8,12.3c0,3.7,1.2,7.4,3.4,10.4h-0.2
				c0,0-4-5.6-5.8-8s-6-6-7.8-8.3c-2.3-2.6-4-5.8-4.7-9.2H1.2c-0.5,4.1,0.1,8.3,1.7,12.2c1.6,3.9,4.1,7.3,7.4,10
				c3.2,2.6,6.7,5,10.3,7.1c1.7,1,3.4,2.1,4.9,3.4c0,0,0.2,0,0.2-0.1c-1.1-2.1-2-4.3-2.7-6.6c-0.6-3.2-1-6.4-1.2-9.6
				c-0.2-3.1-1.4-14.3-3.4-17.8L18,63.3z M18.9,45.6c0.1-0.2,0.4-0.5,0.4,0c-0.2,3.9-0.6,7.8-1.3,11.7c-0.9,4.1-3.6,12.5-3.9,13.7
				c-0.4,2.8-0.4,5.5,0,8.3c0,0,0,0.5-0.3,0.2s-2.8-4.3-4.2-5.8s-4.9-5.8-5.8-8c-2.1-4.8-3-10-2.7-15.2c0.5-6.8,2-8.5,2-8.5
				s0.3-0.2,0.2,0.1C3,43.9,3,45.7,3.2,47.5c0.4,2.8,1.4,5.5,2.8,8c1.2,2.3,2.2,4.8,3,7.3c0.6,1.9,1,3.8,1.3,5.8
				c0.2,1.2,0.6,2.4,1.2,3.5h0.1c-0.7-1.7-1-3.5-1-5.3c-0.1-3.3,0.7-6.5,2.4-9.3C14.5,54.6,18.8,48.4,18.9,45.6L18.9,45.6z
				 M11.1,22.2c0.2-0.3,0.4,0,0.4,0s-2.1,2.6-2,7.8s1,6.1,1.1,10.8c0,3.4-0.2,6.7-0.6,10.1h0.3c0.1-2.4,0.7-4.7,1.8-6.8
				c1.9-3.8,9.1-9.7,9.1-9.7s2.2-2.2,2.5-3.6s0.3,0.1,0.3,0.1c-0.4,2.8-1.2,5.5-2.4,8c-2.1,4.6-6.4,9.1-7.9,11.9s-2.6,3.7-3.6,8.9
				H9.8c-0.3-2.5-0.9-4.9-1.8-7.2c-1.6-4.8-2-4.1-2.9-8.5c-0.6-3.4-0.6-7,0.1-10.4C6.2,29.4,8.2,25.5,11.1,22.2L11.1,22.2z M12.3,41
				c0.7-1.5,1.7-2.8,2.8-4c1.4-1.5,2.8-2.9,4.4-4.2c1.9-1.6,4.2-3.1,5.6-4.4s5.5-7.4,5.4-11.7c-0.7,1.6-1.7,3.1-2.9,4.4
				c-1.8,1.8-6.4,4.5-8.3,6.2c-2.2,1.8-3.8,4.2-4.8,6.8h-0.1c0,0,1.9-5.4,2.4-7.4c0.5-2.8,1.2-5.7,2.1-8.4c0.7-2.4,2.3-4.5,4.4-5.8
				c0.1,0,0-0.2,0-0.2s-8,1.2-10.9,11.5c-0.9,3,0.3,10,0.1,12.7S12.3,40.9,12.3,41l0.2-0.1v-0.2 M37.9,5.2l-4.5,1.6
				c-3.1,1-5.8,2.7-8.1,5c-2.7,3-4.6,6.7-5.4,10.7c-0.8,3-0.9,2.8-0.9,2.8s6.9-5.4,8.9-7.7S32.3,11,34,9.3L37.9,5.2"/>
		</g>
		<path class="st0" d="M225.2,67.8c-1.9-2.4-4.3-4.3-7.1-5.6c-2.8-1.3-5.8-2-8.8-2c-3.5,0-6.9,0.6-10.1,2
			c-5.9,2.6-10.4,7.4-12.7,13.4c-1.2,3.1-1.8,6.5-1.8,9.8c0,3.1,0.5,6.3,1.7,9.2c2.2,5.9,6.8,10.5,12.6,12.9c3.3,1.3,6.8,2,10.3,1.9
			c3.4,0.1,6.9-0.7,9.9-2.3c2.9-1.6,5.4-3.8,7.3-6.5l7.5,5.7c-0.8,1-1.7,2-2.6,2.9c-1.4,1.5-3.1,2.8-4.9,3.8
			c-2.3,1.4-4.8,2.5-7.4,3.3c-3.2,1-6.6,1.5-10,1.4c-9.3,0.2-18.3-3.6-24.8-10.3c-5.7-5.9-8.9-13.9-9-22.1
			c-0.1-4.6,0.8-9.2,2.5-13.5c1.6-4,4-7.6,7.1-10.6c3.1-3,6.8-5.4,10.8-7c4.4-1.7,9.2-2.5,13.9-2.5c4.4,0,8.7,0.9,12.8,2.5
			c4.1,1.6,7.6,4.3,10.3,7.7L225.2,67.8z"/>
		<path class="st0" d="M244.8,51.9h22.9c2.7,0,5.4,0.3,8,1c2.3,0.6,4.4,1.6,6.3,3c1.8,1.4,3.2,3.1,4.2,5.1c1.1,2.3,1.6,4.8,1.5,7.3
			c0.1,3.4-1,6.7-3.2,9.3c-2.2,2.5-5,4.3-8.2,5.3V83c2,0.1,3.9,0.7,5.6,1.6c8.2,4.4,11.2,14.5,6.9,22.7c0,0,0,0,0,0
			c-1,1.8-2.3,3.5-3.9,4.8c-0.4,0.3-0.7,0.6-1.1,0.9c-2.2,1.6-4.7,2.8-7.4,3.5c-3,0.8-6,1.2-9.1,1.2h-22.6V51.9H244.8z M253.8,79.2
			H266c1.6,0,3.2-0.2,4.7-0.5c1.4-0.3,2.7-0.9,3.9-1.7c1.1-0.8,2-1.9,2.6-3.1c0.7-1.4,1-3,1-4.6c0-2.5-0.9-4.9-2.5-6.8
			c-1.7-1.9-4.3-2.9-7.9-2.9h-14.1L253.8,79.2z M253.8,109.9h13.1c1.5,0,3-0.2,4.5-0.4c1.6-0.3,3.2-0.8,4.6-1.7
			c1.5-0.8,2.7-2,3.6-3.4c1-1.7,1.5-3.6,1.4-5.6c0-3.9-1.3-6.8-3.8-8.8s-6-2.9-10.3-3h-13.2L253.8,109.9z"/>
		<path class="st0" d="M303.5,51.9h23.2c3.5-0.1,7.1,0.5,10.4,1.7c2.5,1,4.7,2.5,6.5,4.4c1.5,1.7,2.7,3.8,3.3,6
			c1.2,4.1,1.2,8.6,0,12.7c-0.6,2.2-1.7,4.3-3.3,6c-1.8,1.9-4,3.4-6.5,4.3c-3.3,1.3-6.9,1.8-10.4,1.7h-14.2v29h-8.9V51.9H303.5z
			 M312.4,80.9h11.7c1.7,0,3.5-0.1,5.2-0.4c1.6-0.2,3.1-0.7,4.5-1.5c1.3-0.8,2.4-1.9,3.2-3.2c0.9-1.7,1.3-3.5,1.2-5.4
			c0.1-1.9-0.3-3.7-1.2-5.4c-0.8-1.3-1.9-2.4-3.2-3.2c-1.4-0.8-2.9-1.3-4.5-1.5c-1.7-0.3-3.5-0.4-5.2-0.4h-11.7L312.4,80.9z"/>
		<path class="st0" d="M358.6,51.9H400v8.4h-32.5V81h30.2v8.4h-30.2v28.5h-8.9L358.6,51.9z"/>
	</g>
	<g id="Layer_3">
		<rect x="649" y="1" class="st1" width="8" height="126.2"/>
	</g>
	<g>
		<path class="st2" d="M973.4,16.2l-2.1,1.6c-1.1-1.4-2.7-2.1-4.4-2.1c-4.1,0-6.9,3.3-6.9,7.5c0,4,2.7,7.2,6.9,7.2
			c2.1,0,3.7-0.9,4.8-2.5l2.1,1.6c-1.4,1.9-4,3.2-7,3.2c-5.9,0-9.5-5-9.5-9.5c0-5.6,3.8-9.8,9.6-9.8
			C969.5,13.3,971.9,14.3,973.4,16.2z"/>
		<path class="st2" d="M987.8,26.2v0.6h-9.9c0,2.1,2,3.6,4.2,3.6c1.4,0,2.5-0.7,3.4-1.8l1.8,1.4c-1.3,1.7-3.1,2.5-5.5,2.5
			c-3.7,0-6.3-2.5-6.3-6.5c0-3.6,2.6-6.5,6.4-6.5C985.5,19.6,987.8,22,987.8,26.2z M981.8,21.4c-2.5,0-3.8,2.1-3.8,3.6h7.4
			C985.2,22.7,983.9,21.4,981.8,21.4z"/>
		<path class="st2" d="M993,19.9v1.9h0.1c0.7-1.4,2.3-2.2,4.1-2.2c2.8,0,4.5,1.8,4.5,4.6v8h-2.3v-7.4c0-1.9-1-3.1-2.8-3.1
			c-2.2,0-3.4,1.5-3.4,4v6.4h-2.3V19.9H993z"/>
		<path class="st2" d="M1003.3,21.9v-2h2.7v-3.5h2.3v3.5h3.4v2h-3.4v5.9c0,1.6,0.3,2.5,1.8,2.5c0.5,0,1.2-0.1,1.7-0.4v2.1
			c-0.4,0.3-1.5,0.4-2.1,0.4c-3.6,0-3.6-2.3-3.6-4v-6.6H1003.3z"/>
		<path class="st2" d="M1014.7,19.9h2.3v1.9h0.1c0.6-1.3,2.2-2.2,3.7-2.2c0.4,0,0.8,0.1,1,0.2l-0.1,2.5c-0.4-0.1-0.8-0.2-1.2-0.2
			c-2.3,0-3.5,1.4-3.5,3.8v6.3h-2.3V19.9z"/>
		<path class="st2" d="M1023.7,28.8c0-2.5,1.9-4.3,6.8-4.3h1.7v-0.4c0-1.7-1.2-2.7-3-2.7c-1.3,0-2.1,0.3-3.5,1.4l-1.4-1.5
			c1.3-1.2,3.1-1.8,4.9-1.8c3.7,0,5.1,2.1,5.1,4v6.6c0,0.4,0,1.4,0.1,2h-2.1c-0.1-0.6-0.1-1.1-0.1-1.9h-0.1
			c-1.1,1.6-2.4,2.2-4.3,2.2C1025.5,32.5,1023.7,31.1,1023.7,28.8z M1026.1,28.6c0,1.3,0.9,2,2.7,2c2.1,0,3.5-1.3,3.5-3.7v-0.7h-1.3
			C1027.1,26.3,1026.1,27.4,1026.1,28.6z"/>
		<path class="st2" d="M1040.3,32.2h-2.3V12.5h2.3V32.2z"/>
		<path class="st2" d="M1051.9,13.8h11.9v2.3h-9.4v5.5h8.7V24h-8.7v5.9h9.9v2.3h-12.4V13.8z"/>
		<path class="st2" d="M1067.2,32.2V19.9h2.2v1.9h0.1c0.5-1.1,2.1-2.2,4-2.2c1.8,0,3,0.8,3.8,2.3c0.8-1.4,2.3-2.3,3.9-2.3
			c3.1,0,4.7,1.8,4.7,5.4v7.3h-2.3v-7c0-2.4-0.9-3.5-2.7-3.5c-2.1,0-3.1,1.4-3.1,3.6v6.8h-2.3v-6.6c0-2.9-0.9-3.8-2.6-3.8
			c-1.9,0-3.2,1.6-3.2,4v6.5H1067.2z"/>
		<path class="st2" d="M1101,26.2v0.6h-9.9c0,2.1,2,3.6,4.2,3.6c1.4,0,2.5-0.7,3.4-1.8l1.8,1.4c-1.3,1.7-3.1,2.5-5.5,2.5
			c-3.7,0-6.3-2.5-6.3-6.5c0-3.6,2.6-6.5,6.4-6.5C1098.6,19.6,1101,22,1101,26.2z M1094.9,21.4c-2.5,0-3.8,2.1-3.8,3.6h7.4
			C1098.4,22.7,1097.1,21.4,1094.9,21.4z"/>
		<path class="st2" d="M1103.8,19.9h2.3v1.9h0.1c0.6-1.3,2.2-2.2,3.7-2.2c0.4,0,0.8,0.1,1,0.2l-0.1,2.5c-0.4-0.1-0.8-0.2-1.2-0.2
			c-2.3,0-3.5,1.4-3.5,3.8v6.3h-2.3V19.9z"/>
		<path class="st2" d="M1118.6,19.6c1.7,0,3.4,0.8,4.3,2.1h0.1v-1.8h2.3v12.3c0,3.3-2.4,6.2-6.7,6.2c-2.3,0-4.3-0.6-6-2.2l1.6-2
			c1.2,1.3,2.6,2,4.4,2c2.9,0,4.4-1.6,4.4-4.2v-1.9h-0.1c-0.8,1.4-2.5,2.2-4.3,2.2c-3.5,0-6.3-2.5-6.3-6.3
			C1112.3,22.1,1115,19.6,1118.6,19.6z M1114.8,26c0,2.4,1.5,4.1,4.1,4.1c2.5,0,4.1-1.6,4.1-4.1c0-2.6-1.7-4.3-4.1-4.3
			C1116.5,21.7,1114.8,23.5,1114.8,26z"/>
		<path class="st2" d="M1140.5,26.2v0.6h-9.9c0,2.1,2,3.6,4.2,3.6c1.4,0,2.5-0.7,3.4-1.8l1.8,1.4c-1.3,1.7-3.1,2.5-5.5,2.5
			c-3.7,0-6.3-2.5-6.3-6.5c0-3.6,2.6-6.5,6.4-6.5C1138.1,19.6,1140.5,22,1140.5,26.2z M1134.4,21.4c-2.5,0-3.8,2.1-3.8,3.6h7.4
			C1137.9,22.7,1136.6,21.4,1134.4,21.4z"/>
		<path class="st2" d="M1145.6,19.9v1.9h0.1c0.7-1.4,2.3-2.2,4.1-2.2c2.8,0,4.5,1.8,4.5,4.6v8h-2.3v-7.4c0-1.9-1-3.1-2.8-3.1
			c-2.2,0-3.4,1.5-3.4,4v6.4h-2.3V19.9H1145.6z"/>
		<path class="st2" d="M1168.3,21.5l-1.8,1.6c-0.9-0.9-1.8-1.4-3.1-1.4c-2.3,0-3.8,1.8-3.8,4.4c0,2.4,1.6,4.2,4,4.2
			c1.3,0,2.2-0.5,3-1.4l1.7,1.7c-1.2,1.4-2.9,1.9-4.7,1.9c-3.8,0-6.4-2.6-6.4-6.4c0-3.8,2.7-6.5,6.4-6.5
			C1165.4,19.6,1167.1,20.2,1168.3,21.5z"/>
		<path class="st2" d="M1171.5,19.9l3.7,9.6h0.1l3.5-9.6h2.5l-5.8,14.9c-0.9,2.2-1.7,3.6-4.2,3.6c-0.7,0-1.4-0.1-2.1-0.3l0.3-2.1
			c0.5,0.2,0.9,0.3,1.4,0.3c1.5,0,1.9-0.8,2.4-2.1l0.7-1.9l-5.1-12.4H1171.5z"/>
		<path class="st2" d="M958.5,74.2V55.8h6.6c3.2,0,5.8,1.6,5.8,5.1c0,2-1.4,4.5-4.5,4.9h0l5.2,8.4h-3.1l-4.7-8.1H961v8.1H958.5z
			 M961,63.9h3.4c2.6,0,3.8-0.9,3.8-3c0-2-1.3-3-3.8-3H961V63.9z"/>
		<path class="st2" d="M985.4,68.2v0.6h-9.9c0,2.1,2,3.6,4.2,3.6c1.4,0,2.5-0.7,3.4-1.8l1.8,1.4c-1.3,1.7-3.1,2.5-5.5,2.5
			c-3.7,0-6.3-2.5-6.3-6.5c0-3.6,2.6-6.5,6.4-6.5C983,61.6,985.4,64,985.4,68.2z M979.3,63.4c-2.5,0-3.8,2.1-3.8,3.6h7.4
			C982.8,64.7,981.5,63.4,979.3,63.4z"/>
		<path class="st2" d="M996.6,63.6l-1.8,1.4c-0.6-0.7-1.4-1.2-2.5-1.2c-1.2,0-2.1,0.6-2.1,1.4c0,1,1,1.5,2.4,1.8
			c2.9,0.6,4.3,1.5,4.3,3.7c0,2.7-2.4,3.9-5,3.9c-2.3,0-3.7-0.7-4.7-2.2l1.8-1.5c1.1,1.1,2,1.5,3,1.5c1.3,0,2.5-0.5,2.5-1.6
			c0-0.9-0.9-1.4-2.3-1.8c-2.9-0.6-4.4-1.4-4.4-3.6c0-2.5,2.3-3.8,4.7-3.8C994.2,61.6,995.8,62.3,996.6,63.6z"/>
		<path class="st2" d="M999.8,61.9h2.3v1.8h0.1c0.9-1.3,2.5-2.1,4.3-2.1c3.6,0,6.2,2.6,6.2,6.5c0,3.8-2.6,6.5-6.3,6.5
			c-1.8,0-3.5-0.8-4.3-2.1h-0.1v9.1h-2.3V61.9z M1006.1,72.3c2.4,0,4.1-1.7,4.1-4.3c0-2.6-1.7-4.3-4.1-4.3c-2.4,0-4,1.7-4,4.3
			C1002.1,70.6,1003.7,72.3,1006.1,72.3z"/>
		<path class="st2" d="M1028.1,68c0,3.6-2.9,6.5-6.6,6.5c-3.6,0-6.6-2.8-6.6-6.5c0-3.6,2.9-6.5,6.6-6.5
			C1025.1,61.6,1028.1,64.3,1028.1,68z M1021.6,72.3c2.4,0,4.1-1.7,4.1-4.3c0-2.6-1.7-4.3-4.1-4.3c-2.4,0-4,1.8-4,4.3
			C1017.5,70.6,1019.2,72.3,1021.6,72.3z"/>
		<path class="st2" d="M1033.4,61.9v1.9h0.1c0.7-1.4,2.3-2.2,4.1-2.2c2.8,0,4.5,1.8,4.5,4.6v8h-2.3v-7.4c0-1.9-1-3.1-2.8-3.1
			c-2.2,0-3.4,1.5-3.4,4v6.4h-2.3V61.9H1033.4z"/>
		<path class="st2" d="M1053.9,63.6l-1.8,1.4c-0.6-0.7-1.4-1.2-2.5-1.2s-2.1,0.6-2.1,1.4c0,1,1,1.5,2.4,1.8c2.9,0.6,4.3,1.5,4.3,3.7
			c0,2.7-2.4,3.9-5,3.9c-2.3,0-3.7-0.7-4.7-2.2l1.8-1.5c1.1,1.1,2,1.5,3,1.5c1.3,0,2.5-0.5,2.5-1.6c0-0.9-0.9-1.4-2.3-1.8
			c-2.9-0.6-4.4-1.4-4.4-3.6c0-2.5,2.3-3.8,4.7-3.8C1051.6,61.6,1053.1,62.3,1053.9,63.6z"/>
		<path class="st2" d="M1068.7,68.2v0.6h-9.9c0,2.1,2,3.6,4.2,3.6c1.4,0,2.5-0.7,3.4-1.8l1.8,1.4c-1.3,1.7-3.1,2.5-5.5,2.5
			c-3.7,0-6.3-2.5-6.3-6.5c0-3.6,2.6-6.5,6.4-6.5C1066.4,61.6,1068.7,64,1068.7,68.2z M1062.7,63.4c-2.5,0-3.8,2.1-3.8,3.6h7.4
			C1066.2,64.7,1064.9,63.4,1062.7,63.4z"/>
		<path class="st2" d="M1079.4,55.8h11.6v2.3h-9.1v5.8h8.5v2.3h-8.5v8h-2.5V55.8z"/>
		<path class="st2" d="M1096,61.9v7.4c0,1.9,1.1,3.1,2.8,3.1c2.2,0,3.4-1.6,3.4-4v-6.4h2.3v12.3h-2.3v-1.9h-0.1
			c-0.7,1.4-2.2,2.2-4.1,2.2c-2.7,0-4.5-1.8-4.5-4.6v-8H1096z"/>
		<path class="st2" d="M1110.5,61.9v1.9h0.1c0.7-1.4,2.3-2.2,4.1-2.2c2.8,0,4.5,1.8,4.5,4.6v8h-2.3v-7.4c0-1.9-1-3.1-2.8-3.1
			c-2.2,0-3.4,1.5-3.4,4v6.4h-2.3V61.9H1110.5z"/>
		<path class="st2" d="M1122,68c0-3.8,2.6-6.5,6.3-6.5c1.7,0,3.4,0.8,4.3,2.1h0.1v-9.1h2.3v19.7h-2.3v-1.8h-0.1
			c-0.9,1.3-2.6,2.1-4.3,2.1C1124.6,74.5,1122,71.9,1122,68z M1128.6,72.3c2.4,0,4.1-1.7,4.1-4.3c0-2.6-1.7-4.3-4.1-4.3
			c-2.4,0-4,1.7-4,4.3S1126.1,72.3,1128.6,72.3z"/>
		<path class="st2" d="M974.1,107c0,5.3-4.1,9.2-9.9,9.2H958V97.8h6.6C971.2,97.8,974.1,102.5,974.1,107z M971.5,107
			c0-3.5-2.2-6.9-7.1-6.9h-3.9v13.7h3.3C967.3,113.9,971.5,112,971.5,107z"/>
		<path class="st2" d="M976.5,112.8c0-2.5,1.9-4.3,6.8-4.3h1.7v-0.4c0-1.7-1.2-2.7-3-2.7c-1.3,0-2.1,0.3-3.5,1.4l-1.4-1.5
			c1.3-1.2,3.1-1.8,4.9-1.8c3.7,0,5.1,2.1,5.1,4v6.6c0,0.4,0,1.4,0.1,2h-2.1c-0.1-0.6-0.1-1.1-0.1-1.9h-0.1
			c-1.1,1.6-2.4,2.2-4.3,2.2C978.3,116.5,976.5,115.1,976.5,112.8z M978.9,112.6c0,1.3,0.9,2,2.7,2c2.1,0,3.5-1.3,3.5-3.7v-0.7h-1.3
			C979.9,110.3,978.9,111.4,978.9,112.6z"/>
		<path class="st2" d="M988.8,105.9v-2h2.7v-3.5h2.3v3.5h3.4v2h-3.4v5.9c0,1.6,0.3,2.5,1.8,2.5c0.5,0,1.2-0.1,1.7-0.4v2.1
			c-0.4,0.3-1.5,0.4-2.1,0.4c-3.6,0-3.6-2.3-3.6-4v-6.6H988.8z"/>
		<path class="st2" d="M999.6,112.8c0-2.5,1.9-4.3,6.8-4.3h1.7v-0.4c0-1.7-1.2-2.7-3-2.7c-1.3,0-2.1,0.3-3.5,1.4l-1.4-1.5
			c1.3-1.2,3.1-1.8,4.9-1.8c3.7,0,5.1,2.1,5.1,4v6.6c0,0.4,0,1.4,0.1,2h-2.1c-0.1-0.6-0.1-1.1-0.1-1.9h-0.1
			c-1.1,1.6-2.4,2.2-4.3,2.2C1001.4,116.5,999.6,115.1,999.6,112.8z M1002,112.6c0,1.3,0.9,2,2.7,2c2.1,0,3.5-1.3,3.5-3.7v-0.7h-1.3
			C1003,110.3,1002,111.4,1002,112.6z"/>
		<path class="st2" d="M1021.6,97.8h2.5v7.6h9.5v-7.6h2.5v18.4h-2.5v-8.4h-9.5v8.4h-2.5V97.8z"/>
		<path class="st2" d="M1042.6,103.9v7.4c0,1.9,1.1,3.1,2.8,3.1c2.2,0,3.4-1.6,3.4-4v-6.4h2.3v12.3h-2.3v-1.9h-0.1
			c-0.7,1.4-2.2,2.2-4.1,2.2c-2.7,0-4.5-1.8-4.5-4.6v-8H1042.6z"/>
		<path class="st2" d="M1054.7,116.2V96.5h2.3v9.1h0.1c0.8-1.3,2.6-2.1,4.3-2.1c3.7,0,6.3,2.7,6.3,6.5c0,3.6-2.4,6.5-6.2,6.5
			c-1.7,0-3.4-0.8-4.3-2.1h-0.1v1.8H1054.7z M1061.1,114.3c2.4,0,4.1-1.8,4.1-4.3c0-2.6-1.7-4.3-4.1-4.3c-2.4,0-4,1.7-4,4.3
			C1057,112.6,1058.6,114.3,1061.1,114.3z"/>
	</g>
</g>
<g id="Layer_2">
	<g>
		<path class="st2" d="M458.8,16.3l-2.1,1.6c-1.1-1.4-2.7-2.1-4.4-2.1c-4.1,0-6.9,3.3-6.9,7.5c0,4,2.7,7.2,6.9,7.2
			c2.1,0,3.7-0.9,4.8-2.5l2.1,1.6c-1.4,1.9-4,3.2-7,3.2c-5.9,0-9.5-5-9.5-9.5c0-5.6,3.8-9.8,9.6-9.8C455,13.4,457.4,14.4,458.8,16.3
			z"/>
		<path class="st2" d="M474.1,26.1c0,3.6-2.9,6.5-6.6,6.5c-3.6,0-6.6-2.8-6.6-6.5c0-3.6,2.9-6.5,6.6-6.5
			C471.1,19.7,474.1,22.4,474.1,26.1z M467.6,30.4c2.4,0,4.1-1.7,4.1-4.3s-1.7-4.3-4.1-4.3s-4,1.8-4,4.3
			C463.5,28.7,465.2,30.4,467.6,30.4z"/>
		<path class="st2" d="M479.4,20v7.4c0,1.9,1.1,3.1,2.8,3.1c2.2,0,3.4-1.6,3.4-4V20h2.3v12.3h-2.3v-1.9h-0.1
			c-0.7,1.4-2.2,2.2-4.1,2.2c-2.7,0-4.5-1.8-4.5-4.6v-8H479.4z"/>
		<path class="st2" d="M493.9,20v1.9h0.1c0.7-1.4,2.3-2.2,4.1-2.2c2.8,0,4.5,1.8,4.5,4.6v8h-2.3v-7.4c0-1.9-1-3.1-2.8-3.1
			c-2.2,0-3.4,1.5-3.4,4v6.4h-2.3V20H493.9z"/>
		<path class="st2" d="M504.2,22v-2h2.7v-3.5h2.3V20h3.4v2h-3.4v5.9c0,1.6,0.3,2.5,1.8,2.5c0.5,0,1.2-0.1,1.7-0.4v2.1
			c-0.4,0.3-1.5,0.4-2.1,0.4c-3.6,0-3.6-2.3-3.6-4V22H504.2z"/>
		<path class="st2" d="M515.6,20h2.3v1.9h0.1c0.6-1.3,2.2-2.2,3.7-2.2c0.4,0,0.8,0.1,1,0.2l-0.1,2.5c-0.4-0.1-0.8-0.2-1.2-0.2
			c-2.3,0-3.5,1.4-3.5,3.8v6.3h-2.3V20z"/>
		<path class="st2" d="M526.5,20l3.7,9.6h0.1l3.5-9.6h2.5l-5.8,14.9c-0.9,2.2-1.7,3.6-4.2,3.6c-0.7,0-1.4-0.1-2.1-0.3l0.3-2.1
			c0.5,0.2,0.9,0.3,1.4,0.3c1.5,0,1.9-0.8,2.4-2.1l0.7-1.9L523.8,20H526.5z"/>
		<path class="st2" d="M546.1,13.9h6.5c2.9,0,5.5,1.4,5.5,4.6c0,1.9-1.1,3.4-3.2,4.1v0.1l0,0c2.9,0.3,4,2.8,4,4.6
			c0,3.2-2.7,5.1-6.4,5.1h-6.4L546.1,13.9L546.1,13.9z M552,21.5c2.1,0,3.4-1,3.4-2.8c0-1.7-1.1-2.7-2.8-2.7h-4v5.5H552z
			 M552.3,30.1c2.1,0,3.9-1,3.9-3.1s-1.5-3.3-3.9-3.3h-3.7v6.4H552.3z"/>
		<path class="st2" d="M561.2,28.9c0-2.5,1.9-4.3,6.8-4.3h1.7v-0.4c0-1.7-1.2-2.7-3-2.7c-1.3,0-2.1,0.3-3.5,1.4l-1.4-1.5
			c1.3-1.2,3.1-1.8,4.9-1.8c3.7,0,5.1,2.1,5.1,4v6.6c0,0.4,0,1.4,0.1,2H570c-0.1-0.6-0.1-1.1-0.1-1.9h-0.1c-1.1,1.6-2.4,2.2-4.3,2.2
			C563,32.6,561.2,31.2,561.2,28.9z M563.6,28.7c0,1.3,0.9,2,2.7,2c2.1,0,3.5-1.3,3.5-3.7v-0.7h-1.3
			C564.6,26.4,563.6,27.5,563.6,28.7z"/>
		<path class="st2" d="M583.7,21.7l-1.8,1.4c-0.6-0.7-1.4-1.2-2.5-1.2s-2.1,0.6-2.1,1.4c0,1,1,1.5,2.4,1.8c2.9,0.6,4.3,1.5,4.3,3.7
			c0,2.7-2.4,3.9-5,3.9c-2.3,0-3.7-0.7-4.7-2.2l1.8-1.5c1.1,1.1,2,1.5,3,1.5c1.3,0,2.5-0.5,2.5-1.6c0-0.9-0.9-1.4-2.3-1.8
			c-2.9-0.6-4.4-1.4-4.4-3.6c0-2.5,2.3-3.8,4.7-3.8C581.4,19.7,582.9,20.4,583.7,21.7z"/>
		<path class="st2" d="M598.5,26.3V27h-9.9c0,2.1,2,3.6,4.2,3.6c1.4,0,2.5-0.7,3.4-1.8l1.8,1.4c-1.3,1.7-3.1,2.5-5.5,2.5
			c-3.7,0-6.3-2.5-6.3-6.5c0-3.6,2.6-6.5,6.4-6.5C596.2,19.7,598.5,22.1,598.5,26.3z M592.5,21.5c-2.5,0-3.8,2.1-3.8,3.6h7.4
			C596,22.8,594.7,21.5,592.5,21.5z"/>
		<path class="st2" d="M600.7,26.1c0-3.8,2.6-6.5,6.3-6.5c1.7,0,3.4,0.8,4.3,2.1h0.1v-9.1h2.3v19.7h-2.3v-1.8h-0.1
			c-0.9,1.3-2.6,2.1-4.3,2.1C603.4,32.6,600.7,30,600.7,26.1z M607.3,30.4c2.4,0,4.1-1.7,4.1-4.3s-1.7-4.3-4.1-4.3
			c-2.4,0-4,1.7-4,4.3S604.9,30.4,607.3,30.4z"/>
		<path class="st2" d="M443.9,74.3V55.9h6.6c3.5,0,5.8,1.8,5.8,5.1c0,3.3-2.3,5.1-5.8,5.1h-4.1v8.1h-2.5V74.3z M446.4,64h3.4
			c2.6,0,3.8-0.9,3.8-3c0-2-1.3-3-3.8-3h-3.4V64z"/>
		<path class="st2" d="M471.3,68.1c0,3.6-2.9,6.5-6.6,6.5c-3.6,0-6.6-2.8-6.6-6.5c0-3.6,2.9-6.5,6.6-6.5
			C468.2,61.7,471.3,64.4,471.3,68.1z M464.7,72.4c2.4,0,4.1-1.7,4.1-4.3c0-2.6-1.7-4.3-4.1-4.3s-4,1.8-4,4.3
			C460.7,70.7,462.3,72.4,464.7,72.4z"/>
		<path class="st2" d="M486.7,68.1c0,3.6-2.9,6.5-6.6,6.5c-3.6,0-6.6-2.8-6.6-6.5c0-3.6,2.9-6.5,6.6-6.5
			C483.6,61.7,486.7,64.4,486.7,68.1z M480.2,72.4c2.4,0,4.1-1.7,4.1-4.3c0-2.6-1.7-4.3-4.1-4.3s-4,1.8-4,4.3
			C476.1,70.7,477.7,72.4,480.2,72.4z"/>
		<path class="st2" d="M492.2,74.3h-2.3V54.6h2.3V74.3z"/>
		<path class="st2" d="M507.5,68.3V69h-9.9c0,2.1,2,3.6,4.2,3.6c1.4,0,2.5-0.7,3.4-1.8l1.8,1.4c-1.3,1.7-3.1,2.5-5.5,2.5
			c-3.7,0-6.3-2.5-6.3-6.5c0-3.6,2.6-6.5,6.4-6.5C505.2,61.7,507.5,64.1,507.5,68.3z M501.5,63.5c-2.5,0-3.8,2.1-3.8,3.6h7.4
			C505,64.8,503.7,63.5,501.5,63.5z"/>
		<path class="st2" d="M509.7,68.1c0-3.8,2.6-6.5,6.3-6.5c1.7,0,3.4,0.8,4.3,2.1h0.1v-9.1h2.3v19.7h-2.3v-1.8h-0.1
			c-0.9,1.3-2.6,2.1-4.3,2.1C512.4,74.6,509.7,72,509.7,68.1z M516.3,72.4c2.4,0,4.1-1.7,4.1-4.3c0-2.6-1.7-4.3-4.1-4.3
			s-4,1.7-4,4.3S513.9,72.4,516.3,72.4z"/>
		<path class="st2" d="M534.1,55.9h11.6v2.3h-9.1V64h8.5v2.3h-8.5v8h-2.5V55.9z"/>
		<path class="st2" d="M550.7,62v7.4c0,1.9,1.1,3.1,2.8,3.1c2.2,0,3.4-1.6,3.4-4V62h2.3v12.3H557v-1.9h-0.1
			c-0.7,1.4-2.2,2.2-4.1,2.2c-2.7,0-4.5-1.8-4.5-4.6v-8H550.7z"/>
		<path class="st2" d="M565.2,62v1.9h0.1c0.7-1.4,2.3-2.2,4.1-2.2c2.8,0,4.5,1.8,4.5,4.6v8h-2.3v-7.4c0-1.9-1-3.1-2.8-3.1
			c-2.2,0-3.4,1.5-3.4,4v6.4h-2.3V62H565.2z"/>
		<path class="st2" d="M576.7,68.1c0-3.8,2.6-6.5,6.3-6.5c1.7,0,3.4,0.8,4.3,2.1h0.1v-9.1h2.3v19.7h-2.3v-1.8h-0.1
			c-0.9,1.3-2.6,2.1-4.3,2.1C579.3,74.6,576.7,72,576.7,68.1z M583.2,72.4c2.4,0,4.1-1.7,4.1-4.3c0-2.6-1.7-4.3-4.1-4.3
			c-2.4,0-4,1.7-4,4.3S580.8,72.4,583.2,72.4z"/>
		<path class="st2" d="M601.5,63.7l-1.8,1.4c-0.6-0.7-1.4-1.2-2.5-1.2c-1.2,0-2.1,0.6-2.1,1.4c0,1,1,1.5,2.4,1.8
			c2.9,0.6,4.3,1.5,4.3,3.7c0,2.7-2.4,3.9-5,3.9c-2.3,0-3.7-0.7-4.7-2.2l1.8-1.5c1.1,1.1,2,1.5,3,1.5c1.3,0,2.5-0.5,2.5-1.6
			c0-0.9-0.9-1.4-2.3-1.8c-2.9-0.6-4.4-1.4-4.4-3.6c0-2.5,2.3-3.8,4.7-3.8C599.2,61.7,600.8,62.4,601.5,63.7z"/>
		<path class="st2" d="M459.6,107.1c0,5.3-4.1,9.2-9.9,9.2h-6.2V97.9h6.6C456.7,97.9,459.6,102.6,459.6,107.1z M457,107.1
			c0-3.5-2.2-6.9-7.1-6.9H446V114h3.3C452.8,114,457,112.1,457,107.1z"/>
		<path class="st2" d="M462,112.9c0-2.5,1.9-4.3,6.8-4.3h1.7v-0.4c0-1.7-1.2-2.7-3-2.7c-1.3,0-2.1,0.3-3.5,1.4l-1.4-1.5
			c1.3-1.2,3.1-1.8,4.9-1.8c3.7,0,5.1,2.1,5.1,4v6.6c0,0.4,0,1.4,0.1,2h-2.1c-0.1-0.6-0.1-1.1-0.1-1.9h-0.1
			c-1.1,1.6-2.4,2.2-4.3,2.2C463.8,116.6,462,115.2,462,112.9z M464.3,112.7c0,1.3,0.9,2,2.7,2c2.1,0,3.5-1.3,3.5-3.7v-0.7h-1.3
			C465.4,110.4,464.3,111.5,464.3,112.7z"/>
		<path class="st2" d="M474.3,106v-2h2.7v-3.5h2.3v3.5h3.4v2h-3.4v5.9c0,1.6,0.3,2.5,1.8,2.5c0.5,0,1.2-0.1,1.7-0.4v2.1
			c-0.4,0.3-1.5,0.4-2.1,0.4c-3.6,0-3.6-2.3-3.6-4V106H474.3z"/>
		<path class="st2" d="M485.1,112.9c0-2.5,1.9-4.3,6.8-4.3h1.7v-0.4c0-1.7-1.2-2.7-3-2.7c-1.3,0-2.1,0.3-3.5,1.4l-1.4-1.5
			c1.3-1.2,3.1-1.8,4.9-1.8c3.7,0,5.1,2.1,5.1,4v6.6c0,0.4,0,1.4,0.1,2h-2.1c-0.1-0.6-0.1-1.1-0.1-1.9h-0.1
			c-1.1,1.6-2.4,2.2-4.3,2.2C486.9,116.6,485.1,115.2,485.1,112.9z M487.5,112.7c0,1.3,0.9,2,2.7,2c2.1,0,3.5-1.3,3.5-3.7v-0.7h-1.3
			C488.5,110.4,487.5,111.5,487.5,112.7z"/>
		<path class="st2" d="M507,97.9h2.5v7.6h9.5v-7.6h2.5v18.4H519v-8.4h-9.5v8.4H507V97.9z"/>
		<path class="st2" d="M528,104v7.4c0,1.9,1.1,3.1,2.8,3.1c2.2,0,3.4-1.6,3.4-4V104h2.3v12.3h-2.3v-1.9h-0.1
			c-0.7,1.4-2.2,2.2-4.1,2.2c-2.7,0-4.5-1.8-4.5-4.6v-8H528z"/>
		<path class="st2" d="M540.2,116.3V96.6h2.3v9.1h0.1c0.8-1.3,2.6-2.1,4.3-2.1c3.7,0,6.3,2.7,6.3,6.5c0,3.6-2.4,6.5-6.2,6.5
			c-1.7,0-3.4-0.8-4.3-2.1h-0.1v1.8H540.2z M546.6,114.4c2.4,0,4.1-1.8,4.1-4.3c0-2.6-1.7-4.3-4.1-4.3c-2.4,0-4,1.7-4,4.3
			C542.5,112.7,544.1,114.4,546.6,114.4z"/>
	</g>
	<g>
		<path class="st3" d="M697.5,11.2v13.2c0,2.7,1.3,6.1,5.4,6.1s5.4-3.5,5.4-6.1V11.2h2.9v13.7c0.5,4.6-2.8,8.8-7.4,9.3
			c-4.6,0.5-8.8-2.8-9.3-7.4c-0.1-0.6-0.1-1.2,0-1.8V11.2H697.5z"/>
		<path class="st3" d="M716.5,18.3h2.7v2.2h0.1c1-1.7,2.8-2.6,4.7-2.5c2.8,0,5.2,1.7,5.2,5.5v9.3h-2.7v-8.6c0-2.7-1.6-3.7-3.3-3.7
			s-4,1.5-4,4.8v7.4h-2.7V18.3z"/>
		<path class="st3" d="M735.7,11.1c1.1,0,2,0.9,2,2s-0.9,2-2,2s-2-0.9-2-2S734.6,11.1,735.7,11.1z M734.3,18.3h2.7v14.5h-2.7V18.3z"
			/>
		<path class="st3" d="M750.1,20.7h-3.9v6.5c0,1.6,0,3.3,2.1,3.3c0.7,0,1.4-0.1,2-0.4v2.5c-0.8,0.3-1.6,0.5-2.5,0.5
			c-4.2,0-4.3-2.6-4.3-4.9v-7.5h-3.2v-2.4h3.2v-4h2.7v4.1h3.9V20.7z"/>
		<path class="st3" d="M755.8,26.5c0,2.5,2.4,4.2,4.9,4.2c1.6-0.1,3-0.9,3.9-2.2l2.1,1.6c-1.5,2-3.9,3.1-6.4,3
			c-4.6,0-7.4-3.3-7.4-7.6c-0.1-4,3-7.4,7-7.6h0.5c5.1,0,7.1,3.9,7.1,7.6v1H755.8z M764.4,24.3c-0.1-2.4-1.4-4.2-4.2-4.2
			c-2.4,0-4.3,1.8-4.5,4.2H764.4z"/>
		<path class="st3" d="M786,32.8h-2.8v-2.1l0,0c-1.2,1.6-3,2.5-5,2.5c-4.5,0-7.4-3.3-7.4-7.6s2.9-7.6,7.4-7.6c2-0.1,3.8,0.8,5,2.4
			l0,0V9.7h2.8V32.8z M783.2,25.6c0-2.9-1.8-5-4.7-5s-4.7,2.1-4.7,5s1.8,5,4.7,5S783.2,28.5,783.2,25.6z"/>
		<path class="st3" d="M806,11.2h3.8l11.9,17.7h0.1V11.2h2.9v21.6H821L809,15h-0.1v17.8H806V11.2z"/>
		<path class="st3" d="M830.1,20.1c1.6-1.4,3.6-2.1,5.7-2.1c4.3,0,6,2.3,6,4.8v7.4c0,0.9,0,1.7,0.1,2.6h-2.4
			c-0.1-0.7-0.1-1.5-0.1-2.2h-0.1c-1.1,1.7-3,2.7-5,2.6c-2.7,0-5-1.5-5-4.3s3.6-5,7.9-5h2v-0.6c0-1.7-1.4-3-3.1-3c0,0-0.1,0-0.1,0
			h-0.2c-1.5,0-3,0.6-4.1,1.6L830.1,20.1z M837.8,25.8c-2.6,0-5.7,0.5-5.7,2.8c0,2.3,1.2,2.3,3.1,2.3c2.1,0.1,4-1.5,4.1-3.6
			c0,0,0-0.1,0-0.1v-1.4H837.8z"/>
		<path class="st3" d="M854.6,20.7h-3.9v6.5c0,1.6,0,3.3,2.1,3.3c0.7,0,1.4-0.1,2-0.4v2.5c-0.8,0.3-1.6,0.5-2.5,0.5
			c-4.2,0-4.3-2.6-4.3-4.9v-7.5h-3.2v-2.4h3.2v-4h2.7v4.1h3.9L854.6,20.7z"/>
		<path class="st3" d="M859.9,11.1c1.1,0,2,0.9,2,2s-0.9,2-2,2s-2-0.9-2-2S858.8,11.1,859.9,11.1z M858.5,18.3h2.7v14.5h-2.7V18.3z"
			/>
		<path class="st3" d="M873.2,18c4.2,0,7.6,3.5,7.6,7.7s-3.5,7.6-7.7,7.6c-4.2,0-7.6-3.5-7.6-7.7C865.5,21.4,868.9,18,873.2,18
			L873.2,18z M873.2,30.6c2.6,0.1,4.7-1.9,4.8-4.5c0-0.2,0-0.3,0-0.5c0-2.9-1.8-5-4.8-5s-4.7,2.1-4.7,5S870.3,30.6,873.2,30.6z"/>
		<path class="st3" d="M885.1,18.3h2.8v2.2h0.1c0.9-1.7,2.8-2.7,4.7-2.6c2.8,0,5.2,1.7,5.2,5.5v9.3h-2.7v-8.5c0-2.7-1.6-3.7-3.3-3.7
			s-4,1.5-4,4.8v7.4h-2.8V18.3z"/>
		<path class="st3" d="M910.5,21.9c-0.7-0.9-1.8-1.4-3-1.4c-1.3,0-2.4,0.6-2.4,1.6s2.5,2,3.7,2.2s4.2,1.5,4.2,4.2
			c0,2.7-3,4.5-5.8,4.5c-2.2,0.2-4.3-0.8-5.6-2.6l2.1-1.7c0.9,1,2.1,1.7,3.5,1.7c1.4,0,2.9-0.6,2.9-1.8s-2.3-1.9-3.5-2.2
			s-4.4-1.3-4.4-4.1s2.8-4.3,5.5-4.3c1.9-0.1,3.8,0.8,4.9,2.4L910.5,21.9z"/>
		<path class="st3" d="M739.7,68c-3.8-4.7-9.5-7.4-15.6-7.4c-14.5,0-24.1,11.6-24.1,26.3s9,25.2,24.1,25.2
			c6.7,0.2,13.1-3.1,16.9-8.7l7.4,5.6c-1.9,2.6-9.7,11.3-24.5,11.3c-20.6,0-33.2-17.2-33.2-33.4c0-20.1,13.8-34.5,33.7-34.5
			c8.5,0,17.5,3.2,22.7,10.1L739.7,68z"/>
		<path class="st3" d="M759.3,54H801v8.2h-33v19.3h30.7v8.2H768v20.7h34.6v8.2h-43.3V54z"/>
		<path class="st3" d="M815.4,54h22.8c16.5,0,20.7,10,20.7,18.1c-0.1,8.9-7,16.3-15.9,17.1l18.3,29.5h-11L834,90.2h-9.8v28.5h-8.8
			V54z M824.2,82.5h11.5c6.9,0,13.9-1.6,13.9-10.4s-6.9-10.4-13.9-10.4h-11.5V82.5z"/>
		<path class="st3" d="M872.7,54h40.6v8.2h-31.8v20.3h29.7v8.2h-29.7v28h-8.8V54z"/>
		<rect x="934.7" y="11.3" class="st3" width="2.2" height="107.5"/>
	</g>
</g>
</svg>
