<?xml version="1.0" encoding="utf-8"?>
<!-- Generator: Adobe Illustrator 23.0.3, SVG Export Plug-In . SVG Version: 6.00 Build 0)  -->
<svg version="1.1" id="Layer_1" xmlns="http://www.w3.org/2000/svg" xmlns:xlink="http://www.w3.org/1999/xlink" x="0px" y="0px"
	 viewBox="0 0 60 60" style="enable-background:new 0 0 60 60;" xml:space="preserve">
<style type="text/css">
	.st0{fill-rule:evenodd;clip-rule:evenodd;fill:#FFFFFF;}
</style>
<path id="info" class="st0" d="M0,30C0,13.4,13.4,0,30,0s30,13.4,30,30S46.6,60,30,60S0,46.6,0,30L0,30z M30,48c-2.2,0-4-1.8-4-4V28
	c0-2.2,1.8-4,4-4s4,1.8,4,4v16C34,46.2,32.2,48,30,48z M30,12c2.2,0,4,1.8,4,4s-1.8,4-4,4s-4-1.8-4-4S27.8,12,30,12z"/>
</svg>
