<?xml version="1.0" encoding="utf-8"?>
<!-- Generator: Adobe Illustrator 23.0.3, SVG Export Plug-In . SVG Version: 6.00 Build 0)  -->
<svg version="1.1" xmlns="http://www.w3.org/2000/svg" xmlns:xlink="http://www.w3.org/1999/xlink" x="0px" y="0px"
	 viewBox="0 0 599.2 85.5" style="enable-background:new 0 0 599.2 85.5;" xml:space="preserve">
<style type="text/css">
	.st0{display:none;}
	.st1{display:inline;fill:#1A70B5;}
	.st2{fill:#FFFFFF;}
	.st3{fill:#65A7DB;}
	.st4{fill:#B4D4EE;}
</style>
<g id="Layer_3" class="st0">
	<rect x="-37.3" y="-24" class="st1" width="697" height="138"/>
</g>
<g id="Layer_1">
	<g>
		<path class="st2" d="M139.1,52.2v18h-10.5V19h20c3.8,0,7.2,0.7,10.1,2.1s5.2,3.4,6.7,6c1.6,2.6,2.4,5.5,2.4,8.8
			c0,5-1.7,9-5.2,11.9c-3.4,2.9-8.2,4.3-14.3,4.3H139.1z M139.1,43.6h9.4c2.8,0,4.9-0.7,6.4-2c1.5-1.3,2.2-3.2,2.2-5.6
			c0-2.5-0.7-4.5-2.2-6.1s-3.5-2.3-6.1-2.4h-9.7V43.6z"/>
		<path class="st2" d="M205.8,49.3h-20.3v20.9H175V19h33.3v8.5h-22.8v13.2h20.3V49.3z"/>
		<path class="st2" d="M232.4,70.2V19h17.9c6.2,0,10.9,1.2,14.1,3.6c3.2,2.4,4.8,5.9,4.8,10.5c0,2.5-0.6,4.7-1.9,6.6
			c-1.3,1.9-3.1,3.3-5.4,4.2c2.6,0.7,4.7,2,6.2,4c1.5,2,2.3,4.4,2.3,7.3c0,4.9-1.6,8.6-4.7,11.2c-3.1,2.5-7.6,3.8-13.4,3.9H232.4z
			 M243,40.5h7.8c5.3-0.1,8-2.2,8-6.4c0-2.3-0.7-4-2-5c-1.3-1-3.5-1.5-6.4-1.5H243V40.5z M243,47.9v13.8h9c2.5,0,4.4-0.6,5.8-1.8
			c1.4-1.2,2.1-2.8,2.1-4.9c0-4.7-2.4-7.1-7.3-7.1H243z"/>
		<path class="st2" d="M289.6,70.2H279V19h10.5V70.2z"/>
	</g>
	<g id="Layer_2">
		<rect x="315" y="5.2" class="st3" width="3" height="75.8"/>
		<g>
			<path class="st2" d="M344.8,31.7v8.1h-1.7V19.9h6.8c2.1,0,3.7,0.5,4.9,1.6c1.2,1.1,1.8,2.5,1.8,4.4c0,1.9-0.6,3.3-1.7,4.3
				c-1.2,1-2.8,1.5-5,1.5H344.8z M344.8,30.2h5.1c1.6,0,2.9-0.4,3.7-1.2c0.9-0.8,1.3-1.9,1.3-3.2c0-1.4-0.4-2.5-1.3-3.3
				c-0.9-0.8-2.1-1.2-3.6-1.3h-5.2V30.2z"/>
			<path class="st2" d="M358.9,32.2c0-1.4,0.3-2.7,0.8-3.8c0.6-1.1,1.3-2,2.3-2.7c1-0.6,2.1-1,3.4-1c2,0,3.6,0.7,4.8,2.1
				c1.2,1.4,1.8,3.2,1.8,5.5v0.3c0,1.4-0.3,2.7-0.8,3.9c-0.6,1.1-1.3,2-2.3,2.6c-1,0.6-2.1,0.9-3.4,0.9c-2,0-3.6-0.7-4.8-2.1
				c-1.2-1.4-1.8-3.2-1.8-5.5V32.2z M360.6,32.6c0,1.8,0.5,3.2,1.4,4.4s2.1,1.7,3.6,1.7c1.5,0,2.7-0.6,3.6-1.7s1.4-2.6,1.4-4.5v-0.3
				c0-1.1-0.2-2.2-0.6-3.1c-0.4-0.9-1-1.7-1.8-2.2c-0.8-0.5-1.6-0.8-2.6-0.8c-1.5,0-2.6,0.6-3.6,1.7c-0.9,1.1-1.4,2.6-1.4,4.5V32.6z
				"/>
			<path class="st2" d="M374.6,32.2c0-1.4,0.3-2.7,0.8-3.8c0.6-1.1,1.3-2,2.3-2.7c1-0.6,2.1-1,3.4-1c2,0,3.6,0.7,4.8,2.1
				c1.2,1.4,1.8,3.2,1.8,5.5v0.3c0,1.4-0.3,2.7-0.8,3.9c-0.6,1.1-1.3,2-2.3,2.6c-1,0.6-2.1,0.9-3.4,0.9c-2,0-3.6-0.7-4.8-2.1
				c-1.2-1.4-1.8-3.2-1.8-5.5V32.2z M376.2,32.6c0,1.8,0.5,3.2,1.4,4.4s2.1,1.7,3.6,1.7c1.5,0,2.7-0.6,3.6-1.7s1.4-2.6,1.4-4.5v-0.3
				c0-1.1-0.2-2.2-0.6-3.1c-0.4-0.9-1-1.7-1.8-2.2c-0.8-0.5-1.6-0.8-2.6-0.8c-1.5,0-2.6,0.6-3.6,1.7c-0.9,1.1-1.4,2.6-1.4,4.5V32.6z
				"/>
			<path class="st2" d="M393,39.8h-1.6v-21h1.6V39.8z"/>
			<path class="st2" d="M403.2,40c-1.3,0-2.4-0.3-3.4-0.9c-1-0.6-1.8-1.5-2.4-2.6c-0.6-1.1-0.8-2.3-0.8-3.7v-0.6
				c0-1.4,0.3-2.7,0.8-3.8c0.6-1.1,1.3-2,2.3-2.7c1-0.7,2.1-1,3.2-1c1.8,0,3.2,0.6,4.3,1.8c1.1,1.2,1.6,2.9,1.6,5v0.9h-10.6v0.3
				c0,1.7,0.5,3.1,1.4,4.2c1,1.1,2.2,1.7,3.6,1.7c0.9,0,1.6-0.2,2.3-0.5c0.7-0.3,1.3-0.8,1.8-1.5l1,0.8
				C407.2,39.2,405.5,40,403.2,40z M402.9,26.1c-1.2,0-2.3,0.5-3.1,1.4c-0.8,0.9-1.4,2.1-1.5,3.6h8.9v-0.2c0-1.4-0.5-2.6-1.2-3.5
				C405.1,26.6,404.1,26.1,402.9,26.1z"/>
			<path class="st2" d="M411.3,32.2c0-2.3,0.5-4.1,1.5-5.5c1-1.4,2.4-2,4.2-2c2,0,3.5,0.8,4.6,2.4v-8.3h1.6v21h-1.5l-0.1-2
				c-1,1.5-2.6,2.2-4.6,2.2c-1.7,0-3.1-0.7-4.1-2.1c-1-1.4-1.6-3.2-1.6-5.6V32.2z M412.9,32.5c0,1.9,0.4,3.4,1.1,4.5
				c0.8,1.1,1.8,1.6,3.2,1.6c2,0,3.4-0.9,4.3-2.7V29c-0.8-1.9-2.3-2.9-4.3-2.9c-1.4,0-2.4,0.5-3.2,1.6S412.9,30.4,412.9,32.5z"/>
			<path class="st2" d="M445.6,30.5h-9.3v9.3h-1.7V19.9H447v1.4h-10.7V29h9.3V30.5z"/>
			<path class="st2" d="M459.3,37.9c-1,1.4-2.6,2.1-4.7,2.1c-1.6,0-2.8-0.5-3.6-1.4s-1.2-2.3-1.3-4.1V25h1.6v9.4
				c0,2.8,1.1,4.2,3.4,4.2c2.4,0,3.9-1,4.5-2.9V25h1.6v14.8h-1.6L459.3,37.9z"/>
			<path class="st2" d="M466.7,25l0.1,2.5c0.6-0.9,1.2-1.6,2.1-2.1c0.8-0.5,1.7-0.7,2.7-0.7c1.6,0,2.8,0.4,3.5,1.3
				c0.8,0.9,1.2,2.2,1.2,4v9.7h-1.6v-9.7c0-1.3-0.3-2.3-0.8-3c-0.6-0.6-1.4-1-2.6-1c-1,0-1.9,0.3-2.7,1c-0.8,0.6-1.4,1.5-1.7,2.6
				v10.1h-1.6V25H466.7z"/>
			<path class="st2" d="M479.8,32.2c0-2.3,0.5-4.1,1.5-5.5c1-1.4,2.4-2,4.2-2c2,0,3.5,0.8,4.6,2.4v-8.3h1.6v21h-1.5l-0.1-2
				c-1,1.5-2.6,2.2-4.6,2.2c-1.7,0-3.1-0.7-4.1-2.1c-1-1.4-1.6-3.2-1.6-5.6V32.2z M481.5,32.5c0,1.9,0.4,3.4,1.1,4.5
				c0.8,1.1,1.8,1.6,3.2,1.6c2,0,3.4-0.9,4.3-2.7V29c-0.8-1.9-2.3-2.9-4.3-2.9c-1.4,0-2.4,0.5-3.2,1.6S481.5,30.4,481.5,32.5z"/>
			<path class="st2" d="M343.1,69.8V49.9h5.9c2.1,0,3.8,0.4,4.9,1.3c1.1,0.9,1.7,2.2,1.7,3.9c0,1-0.3,1.9-0.8,2.7s-1.3,1.3-2.3,1.6
				c1.2,0.3,2.1,0.8,2.8,1.7c0.7,0.9,1.1,1.9,1.1,3.1c0,1.8-0.6,3.1-1.7,4.1s-2.7,1.5-4.7,1.5H343.1z M344.8,58.8h4.6
				c1.4,0,2.5-0.4,3.3-1c0.8-0.6,1.2-1.6,1.2-2.8c0-1.3-0.4-2.2-1.2-2.8c-0.8-0.6-2-0.9-3.6-0.9h-4.2V58.8z M344.8,60.2v8.1h5
				c1.4,0,2.6-0.4,3.4-1.1c0.8-0.7,1.3-1.8,1.3-3.1c0-1.2-0.4-2.2-1.2-2.9c-0.8-0.7-1.9-1.1-3.3-1.1H344.8z"/>
			<path class="st2" d="M369.4,67.9c-1,1.4-2.6,2.1-4.7,2.1c-1.6,0-2.8-0.5-3.6-1.4s-1.2-2.3-1.3-4.1V55h1.6v9.4
				c0,2.8,1.1,4.2,3.4,4.2c2.4,0,3.9-1,4.5-2.9V55h1.6v14.8h-1.6L369.4,67.9z"/>
			<path class="st2" d="M384.2,66c0-0.8-0.3-1.5-1-2c-0.7-0.5-1.6-0.9-2.9-1.2c-1.3-0.3-2.3-0.6-3.1-1c-0.7-0.4-1.3-0.8-1.6-1.3
				c-0.4-0.5-0.5-1.1-0.5-1.9c0-1.2,0.5-2.1,1.5-2.9c1-0.8,2.2-1.1,3.7-1.1c1.6,0,3,0.4,4,1.2c1,0.8,1.5,1.9,1.5,3.2h-1.6
				c0-0.9-0.4-1.6-1.1-2.2s-1.6-0.9-2.7-0.9c-1.1,0-1.9,0.2-2.6,0.7c-0.7,0.5-1,1.1-1,1.9c0,0.7,0.3,1.3,0.8,1.7
				c0.5,0.4,1.5,0.8,3,1.1s2.5,0.7,3.2,1.1c0.7,0.4,1.2,0.8,1.6,1.4c0.3,0.5,0.5,1.2,0.5,2c0,1.2-0.5,2.2-1.5,3
				c-1,0.7-2.3,1.1-3.9,1.1c-1.7,0-3.1-0.4-4.2-1.3c-1.1-0.8-1.6-1.9-1.6-3.2h1.6c0.1,1,0.5,1.7,1.2,2.2c0.7,0.5,1.7,0.8,2.9,0.8
				c1.1,0,2.1-0.3,2.8-0.8C383.8,67.4,384.2,66.8,384.2,66z"/>
			<path class="st2" d="M389.4,50.7c0-0.3,0.1-0.6,0.3-0.8c0.2-0.2,0.5-0.3,0.8-0.3c0.3,0,0.6,0.1,0.8,0.3s0.3,0.5,0.3,0.8
				s-0.1,0.6-0.3,0.8s-0.5,0.3-0.8,0.3c-0.3,0-0.6-0.1-0.8-0.3C389.5,51.3,389.4,51,389.4,50.7z M391.3,69.8h-1.6V55h1.6V69.8z"/>
			<path class="st2" d="M397.3,55l0.1,2.5c0.6-0.9,1.2-1.6,2.1-2.1c0.8-0.5,1.7-0.7,2.7-0.7c1.6,0,2.8,0.4,3.5,1.3
				c0.8,0.9,1.2,2.2,1.2,4v9.7h-1.6v-9.7c0-1.3-0.3-2.3-0.8-3c-0.6-0.6-1.4-1-2.6-1c-1,0-1.9,0.3-2.7,1c-0.8,0.6-1.4,1.5-1.7,2.6
				v10.1h-1.6V55H397.3z"/>
			<path class="st2" d="M416.9,70c-1.3,0-2.4-0.3-3.4-0.9c-1-0.6-1.8-1.5-2.4-2.6c-0.6-1.1-0.8-2.3-0.8-3.7v-0.6
				c0-1.4,0.3-2.7,0.8-3.8c0.6-1.1,1.3-2,2.3-2.7c1-0.7,2.1-1,3.2-1c1.8,0,3.2,0.6,4.3,1.8c1.1,1.2,1.6,2.9,1.6,5v0.9h-10.6v0.3
				c0,1.7,0.5,3.1,1.4,4.2c1,1.1,2.2,1.7,3.6,1.7c0.9,0,1.6-0.2,2.3-0.5s1.3-0.8,1.8-1.5l1,0.8C420.9,69.2,419.1,70,416.9,70z
				 M416.6,56.1c-1.2,0-2.3,0.5-3.1,1.4c-0.8,0.9-1.4,2.1-1.5,3.6h8.9v-0.2c0-1.4-0.5-2.6-1.2-3.5S417.8,56.1,416.6,56.1z"/>
			<path class="st2" d="M434.5,66c0-0.8-0.3-1.5-1-2c-0.7-0.5-1.6-0.9-2.9-1.2c-1.3-0.3-2.3-0.6-3.1-1c-0.7-0.4-1.3-0.8-1.6-1.3
				c-0.4-0.5-0.5-1.1-0.5-1.9c0-1.2,0.5-2.1,1.5-2.9c1-0.8,2.2-1.1,3.7-1.1c1.6,0,3,0.4,4,1.2c1,0.8,1.5,1.9,1.5,3.2h-1.6
				c0-0.9-0.4-1.6-1.1-2.2s-1.6-0.9-2.7-0.9c-1.1,0-1.9,0.2-2.6,0.7c-0.7,0.5-1,1.1-1,1.9c0,0.7,0.3,1.3,0.8,1.7
				c0.5,0.4,1.5,0.8,3,1.1s2.5,0.7,3.2,1.1c0.7,0.4,1.2,0.8,1.6,1.4c0.3,0.5,0.5,1.2,0.5,2c0,1.2-0.5,2.2-1.5,3
				c-1,0.7-2.3,1.1-3.9,1.1c-1.7,0-3.1-0.4-4.2-1.3c-1.1-0.8-1.6-1.9-1.6-3.2h1.6c0.1,1,0.5,1.7,1.2,2.2c0.7,0.5,1.7,0.8,2.9,0.8
				c1.1,0,2.1-0.3,2.8-0.8C434.1,67.4,434.5,66.8,434.5,66z"/>
			<path class="st2" d="M448.6,66c0-0.8-0.3-1.5-1-2c-0.7-0.5-1.6-0.9-2.9-1.2c-1.3-0.3-2.3-0.6-3.1-1c-0.7-0.4-1.3-0.8-1.6-1.3
				c-0.4-0.5-0.5-1.1-0.5-1.9c0-1.2,0.5-2.1,1.5-2.9c1-0.8,2.2-1.1,3.7-1.1c1.6,0,3,0.4,4,1.2c1,0.8,1.5,1.9,1.5,3.2h-1.6
				c0-0.9-0.4-1.6-1.1-2.2s-1.6-0.9-2.7-0.9c-1.1,0-1.9,0.2-2.6,0.7c-0.7,0.5-1,1.1-1,1.9c0,0.7,0.3,1.3,0.8,1.7
				c0.5,0.4,1.5,0.8,3,1.1s2.5,0.7,3.2,1.1c0.7,0.4,1.2,0.8,1.6,1.4c0.3,0.5,0.5,1.2,0.5,2c0,1.2-0.5,2.2-1.5,3
				c-1,0.7-2.3,1.1-3.9,1.1c-1.7,0-3.1-0.4-4.2-1.3c-1.1-0.8-1.6-1.9-1.6-3.2h1.6c0.1,1,0.5,1.7,1.2,2.2c0.7,0.5,1.7,0.8,2.9,0.8
				c1.1,0,2.1-0.3,2.8-0.8C448.3,67.4,448.6,66.8,448.6,66z"/>
			<path class="st2" d="M463.2,69.8h-1.7V49.9h1.7V69.8z"/>
			<path class="st2" d="M469.8,55l0.1,2.5c0.6-0.9,1.2-1.6,2.1-2.1c0.8-0.5,1.7-0.7,2.7-0.7c1.6,0,2.8,0.4,3.5,1.3
				c0.8,0.9,1.2,2.2,1.2,4v9.7h-1.6v-9.7c0-1.3-0.3-2.3-0.8-3c-0.6-0.6-1.4-1-2.6-1c-1,0-1.9,0.3-2.7,1c-0.8,0.6-1.4,1.5-1.7,2.6
				v10.1h-1.6V55H469.8z"/>
			<path class="st2" d="M486.1,51.2V55h3.1v1.3h-3.1v9.9c0,0.8,0.1,1.4,0.4,1.8c0.3,0.4,0.8,0.6,1.5,0.6c0.3,0,0.7,0,1.3-0.1
				l0.1,1.3c-0.4,0.2-1,0.2-1.8,0.2c-1.1,0-1.9-0.3-2.4-1c-0.5-0.7-0.8-1.6-0.8-2.9v-9.9h-2.7V55h2.7v-3.8H486.1z"/>
			<path class="st2" d="M498.3,70c-1.3,0-2.4-0.3-3.4-0.9c-1-0.6-1.8-1.5-2.4-2.6c-0.6-1.1-0.8-2.3-0.8-3.7v-0.6
				c0-1.4,0.3-2.7,0.8-3.8c0.6-1.1,1.3-2,2.3-2.7c1-0.7,2.1-1,3.2-1c1.8,0,3.2,0.6,4.3,1.8c1.1,1.2,1.6,2.9,1.6,5v0.9h-10.6v0.3
				c0,1.7,0.5,3.1,1.4,4.2c1,1.1,2.2,1.7,3.6,1.7c0.9,0,1.6-0.2,2.3-0.5s1.3-0.8,1.8-1.5l1,0.8C502.3,69.2,500.6,70,498.3,70z
				 M498,56.1c-1.2,0-2.3,0.5-3.1,1.4c-0.8,0.9-1.4,2.1-1.5,3.6h8.9v-0.2c0-1.4-0.5-2.6-1.2-3.5S499.3,56.1,498,56.1z"/>
			<path class="st2" d="M508.9,69.8h-1.6v-21h1.6V69.8z"/>
			<path class="st2" d="M515.2,69.8h-1.6v-21h1.6V69.8z"/>
			<path class="st2" d="M519.5,50.7c0-0.3,0.1-0.6,0.3-0.8c0.2-0.2,0.5-0.3,0.8-0.3c0.3,0,0.6,0.1,0.8,0.3s0.3,0.5,0.3,0.8
				s-0.1,0.6-0.3,0.8s-0.5,0.3-0.8,0.3c-0.3,0-0.6-0.1-0.8-0.3C519.6,51.3,519.5,51,519.5,50.7z M521.4,69.8h-1.6V55h1.6V69.8z"/>
			<path class="st2" d="M525.2,62.2c0-2.3,0.5-4.1,1.5-5.5s2.4-2,4.2-2c2,0,3.5,0.8,4.6,2.4l0.1-2.1h1.5v14.5c0,1.9-0.5,3.4-1.6,4.5
				s-2.5,1.7-4.3,1.7c-1,0-2-0.2-2.9-0.7s-1.7-1.1-2.2-1.8l0.9-1c1.2,1.4,2.5,2.1,4.1,2.1c1.4,0,2.4-0.4,3.2-1.2s1.2-1.9,1.2-3.4
				v-1.9c-1,1.5-2.6,2.2-4.6,2.2c-1.7,0-3.1-0.7-4.1-2.1s-1.6-3.2-1.6-5.5V62.2z M526.9,62.5c0,1.9,0.4,3.4,1.1,4.5
				c0.8,1.1,1.8,1.6,3.2,1.6c2,0,3.4-0.9,4.3-2.7V59c-0.4-0.9-0.9-1.7-1.7-2.2c-0.7-0.5-1.6-0.7-2.6-0.7c-1.4,0-2.4,0.5-3.2,1.6
				S526.9,60.4,526.9,62.5z"/>
			<path class="st2" d="M547.1,70c-1.3,0-2.4-0.3-3.4-0.9s-1.8-1.5-2.4-2.6s-0.8-2.3-0.8-3.7v-0.6c0-1.4,0.3-2.7,0.8-3.8
				s1.3-2,2.3-2.7c1-0.7,2.1-1,3.2-1c1.8,0,3.2,0.6,4.3,1.8c1.1,1.2,1.6,2.9,1.6,5v0.9h-10.6v0.3c0,1.7,0.5,3.1,1.4,4.2
				c1,1.1,2.2,1.7,3.6,1.7c0.9,0,1.6-0.2,2.3-0.5s1.3-0.8,1.8-1.5l1,0.8C551.2,69.2,549.4,70,547.1,70z M546.8,56.1
				c-1.2,0-2.3,0.5-3.1,1.4s-1.4,2.1-1.5,3.6h8.9v-0.2c0-1.4-0.5-2.6-1.2-3.5S548.1,56.1,546.8,56.1z"/>
			<path class="st2" d="M557.4,55l0.1,2.5c0.6-0.9,1.2-1.6,2.1-2.1s1.7-0.7,2.7-0.7c1.6,0,2.8,0.4,3.5,1.3s1.2,2.2,1.2,4v9.7h-1.6
				v-9.7c0-1.3-0.3-2.3-0.8-3s-1.4-1-2.6-1c-1,0-1.9,0.3-2.7,1c-0.8,0.6-1.4,1.5-1.7,2.6v10.1h-1.6V55H557.4z"/>
			<path class="st2" d="M576.7,68.7c1.1,0,2.1-0.3,2.9-1s1.2-1.5,1.3-2.5h1.6c0,0.9-0.3,1.7-0.8,2.5c-0.5,0.7-1.2,1.3-2.1,1.7
				s-1.8,0.6-2.8,0.6c-1.9,0-3.5-0.7-4.6-2s-1.7-3.2-1.7-5.4v-0.5c0-1.5,0.3-2.7,0.8-3.9s1.2-2,2.2-2.6s2.1-0.9,3.3-0.9
				c1.6,0,3,0.5,4,1.4s1.6,2.2,1.7,3.8h-1.6c-0.1-1.2-0.5-2.1-1.3-2.8s-1.7-1.1-2.9-1.1c-1.5,0-2.6,0.5-3.4,1.6s-1.2,2.6-1.2,4.5
				v0.5c0,1.9,0.4,3.4,1.2,4.4S575.2,68.7,576.7,68.7z"/>
			<path class="st2" d="M591.4,70c-1.3,0-2.4-0.3-3.4-0.9s-1.8-1.5-2.4-2.6s-0.8-2.3-0.8-3.7v-0.6c0-1.4,0.3-2.7,0.8-3.8
				s1.3-2,2.3-2.7c1-0.7,2.1-1,3.2-1c1.8,0,3.2,0.6,4.3,1.8c1.1,1.2,1.6,2.9,1.6,5v0.9h-10.6v0.3c0,1.7,0.5,3.1,1.4,4.2
				c1,1.1,2.2,1.7,3.6,1.7c0.9,0,1.6-0.2,2.3-0.5s1.3-0.8,1.8-1.5l1,0.8C595.4,69.2,593.7,70,591.4,70z M591.1,56.1
				c-1.2,0-2.3,0.5-3.1,1.4s-1.4,2.1-1.5,3.6h8.9v-0.2c0-1.4-0.5-2.6-1.2-3.5S592.3,56.1,591.1,56.1z"/>
		</g>
	</g>
	<path class="st4" d="M57.2,44.4c-0.2-0.1-0.5-0.1-0.7,0.1L56,44.9c0,0-0.2,0.2-0.1,0.3c0.1,0.1,0.4-0.2,0.4-0.2l0.6-0.3l0.3-0.2
		c0,0,0.4-0.1-0.1-0.3 M72,36.9c0,1-0.1,1.9-0.3,2.9c0.1,0.3,0.8,0.8,0.8,1.1c0.1,0.3-0.6,0.8-0.8,0.5l-0.3-0.3
		c-0.9,3.4-2.6,6.6-5,9.1l1.7,1.7c0.1-0.2,0.1-0.3,0.1-0.5c-0.1-0.6,0.1-0.8,0.3-0.8c0.5,0,0.9,0.3,1.1,0.8c0.1,0.3,0.1,0,0.3,0.4
		c0,0.3,0,0.5,0.1,0.8l0.2,0.4c0,0.2,0,0.3-0.1,0.5c4.3-4.5,6.7-10.4,7-16.6L72,36.9z M65.6,57.3c1-0.7,2-1.4,2.9-2.2l-0.1-0.1
		c-0.2,0-0.3,0-0.4-0.1c-0.1-0.2-0.2-0.4-0.3-0.6l-2.6-2.6l-0.6,0.6v0.6c1.7,0.8,2,1.5,2,1.8c-0.1,0.3-1.1,1.3-1.1,1.6
		c0,0.3,0.4,0.6,0.4,0.8L65.6,57.3z M51.7,57.4v4.4c1.3,0,2.6-0.2,3.9-0.4c-0.3-0.3-0.8-0.6-1.2-0.7c-0.4-0.4-0.6-0.8-0.8-1.3
		c-0.3-0.7,0.5-0.8,0.3-1.3s-1.8-0.3-1.8-0.3S52.4,58.1,51.7,57.4L51.7,57.4z M49.8,57c-4.8-0.2-9.4-2-13-5.1l0.6,0.6
		c1,0.9,1.1,1.4,1.1,1.8c-0.1,0.4-2.2,0.4-2.2,0.4h-0.1c-0.7,0.4-1.5,0.5-2.3,0.5c-0.2-0.1-0.4-0.2-0.6-0.3l-0.2,0.2
		c4.6,4.1,10.6,6.5,16.8,6.7V57z M29.6,38.8c-0.1-0.6-0.1-1.2-0.2-1.8h-5c0.1,2.4,0.5,4.7,1.3,6.9h0.1c0.2-0.1,0-0.2,0.1-0.5
		c0.1-0.3,0.3,0,0.4-0.2c0.1-0.2-0.1-0.3-0.1-0.4s0.3-0.3,0.3-0.4s-0.1,0.1-0.2-0.3c0-0.3,0.1-0.7,0.2-1l0.4-0.8
		c0.2-0.4,1.1-0.7,1.3-1c0.3-0.3,0.3-0.6,0.8-0.7C29.2,38.6,29.4,38.7,29.6,38.8z M29.5,35.1c0.2-5,2.3-9.8,5.7-13.4l-3.4-3.5
		c-4.4,4.5-7,10.6-7.2,16.9H29.5z M36.5,20.4c3.7-3.3,8.4-5.2,13.3-5.4v-4.8c-6.2,0.2-12.2,2.6-16.8,6.8L36.5,20.4z M51.7,15
		c3.8,0.2,7.6,1.4,10.8,3.5l-0.3-0.6c-0.1-0.1,0.3-0.3,0.3-0.3s-0.7-1.1-0.5-1.3c0.2-0.2,0.8,0.3,1.1,0.8s0.7,1,1,1
		c0.3,0.1,0.8,0,0.9,0.5c0.2,0.4,0.3,0.8,0.4,1.2v0.3l1.5-1.4c-0.1-0.4-0.4-0.7-0.8-0.9l-1,0.3c0,0-0.4,0.2-0.5-0.1
		c-0.1-0.3-0.1-0.5-0.1-0.8c0,0-0.4-0.3-0.4-0.4s0.2-0.9,0.1-1.1c-0.1-0.2-0.3-0.3-0.5-0.4c-0.1-0.4-0.2-0.8-0.3-1.2
		c-0.3-0.4-0.6-0.7-1-1.1v-0.2c-3.3-1.6-6.8-2.5-10.5-2.6V15z M66.5,21.8l0.4,0.4l1.1,1.3l0.5,0.7l0.5-0.3c0.3-0.2,0.5,0,0.6,0.4
		c0.1,0.4-0.6,0.4-0.4,0.8c0.3,0.4,0.7-0.1,0.8,0c0.1,0.2,0.1,0.4-0.1,0.6c-0.1,0.2-0.3,0.3-0.3,0.4l0.2,0.4
		c0.3,0.1,0.8-0.1,0.8,0.3s0.4,0.9,0.4,1.3c0,0.2-0.1,0.5-0.2,0.7c0.2,0.5,0.4,1,0.5,1.6c0.1-0.1,0.3-0.2,0.4-0.1V31
		c0,0.3-0.1,0.6-0.1,0.8l0.1,0.8c0.1,0.3,0.1,0.7,0.2,1h-0.1c0.1,0.4,0.1,0.8,0.1,1.3h5c-0.1-3.2-0.8-6.3-2.1-9.3h-0.3
		c-0.2,0.2-0.4,0.3-0.7,0.3c-0.3,0-0.5-0.4-0.5-0.4s-1.4-1.8-1.6-2c-0.2-0.2-0.5-0.3-0.8-0.3c-0.6-0.1-0.4-0.3-0.4-0.3l-1.1-0.4
		l-0.4-0.8c0,0,0.1-0.3,0-0.4c-0.3-0.1-0.7-0.1-1-0.1l-0.6-0.4l-0.8,0.8C66.5,21.7,66.5,21.8,66.5,21.8z M85.8,36
		c0,19.1-15.7,34.6-35.1,34.6s-35-15.5-35-34.6s15.7-34.6,35-34.6S85.8,16.9,85.8,36L85.8,36z M50.8,30.2L50.8,30.2l-1.3,0.1
		c0.1,0.1,0.2,0.1,0.1,0.3c0,0.4,0.1,0.7,0.2,1.1l-2.2,1.1c-0.1,0.3-0.3,0.6-0.6,0.8c-0.3,0.1-0.5,0.4-0.7,0.6
		c-0.2,0.3-0.1,0.5-0.3,0.9c-0.1,0.4,0.1,0.5,0.1,0.7c-0.1,0.4-0.2,0.7-0.3,1.1c-0.1,0.2-0.4-0.1-0.6-0.1c-0.2-0.1-0.3-1-0.4-1.1
		h-0.1V36c0,0.4,0.1,0.8,0.1,1.2c0.3-0.1,0.2-0.2,0.3-0.2s0.3,0.4,0.5,0.4s0.4-0.1,0.4-0.6c0-0.3,0.3-0.6,0.6-0.6l0,0h0.1
		c0.2,0,0,0.4,0.1,0.5s0.3,0,0.3,0.3c0,0.3-0.6,0.7-0.7,1.2c-0.1,0.5-0.2,0.6-0.4,0.6s-0.3-0.6-0.4-0.3s0.4,0.8,0.4,0.8
		c0.3-0.2,0.5-0.5,0.6-0.8c0.1-0.3,0.4-0.2,0.6-0.4c0.2-0.3,0.3-0.7,0.3-1.1c-0.1-0.2,0.3-0.1,1.6-0.2c1.3-0.1,1.2,0.3,1.1,0.7
		s0.2-0.1,0.2,0.3c0,0.4-0.5,0.8-0.6,1.1c-0.1,0.4,0.2,0.4,0,0.5c-0.1,0.1-0.2,0.2-0.3,0.3c-0.7,0.8-0.8,0.3-1.2,0.5
		c-0.3,0.1-0.6,0.2-1,0.1h-0.1c1,0.8,2.3,1.2,3.6,1.1h0.9c0.1-0.7,0.4-1.8,0.9-2c0.5-0.3,1.2,0.2,1.5,0c0.2-0.1,0.4-0.3,0.4-0.6
		c0.1-0.3,0.2-0.7,0.1-1.1c-0.1-0.4-0.4-0.2-0.5-0.5c-0.1-0.3,0.5-0.3,0.2-0.6c-0.3-0.4-0.4-1-0.5-1.1c-0.1-0.1-0.3,0-0.4-0.2
		c-0.2-0.2,0.1-0.4,0.1-0.7s0.4-0.3,0.4-0.6c-0.1-0.3-0.3,0-0.4-0.3c0-0.2,0.1-0.5,0.2-0.7c0,0-0.7,0-0.8-0.3
		c-0.3-0.9-1.3-1.5-2.3-1.2c0,0,0,0,0,0l0,0c-0.2-0.3-0.4-0.6-0.7-0.8c0,0-0.1-0.6,0.1-0.8c0.2-0.3,0.8,0,0.8-0.1
		S50.8,30.2,50.8,30.2L50.8,30.2z M71.2,17c1.1,1.2,2.1,2.4,3,3.7c0.3,0.3,0.6,0.6,0.8,1V22l0.3,0.4l0.1,0.1
		c0.3,0.3,0.6,0.7,0.7,1.1c0.1,0.2,0.2,0.5,0.2,0.7c1.6,3.4,2.5,7.1,2.6,10.8h5.1c-0.2-8.1-3.5-15.8-9.2-21.6L71.2,17z M52.5,8.3
		c4,0.3,7.9,1.3,11.5,3.2l1-0.4H65l0.9,0.2c0.6,0.2,0.6,0,0.8,0.1s0.3,0.4,0.6,0.7s0.3,0,0.6,0.2c0.4,0.3,0.7,0.6,1,1
		c0.1,0.3,0.3-0.1,0.6,1.1l0.7,0.8l3.2-3.2c-5.9-5.4-13.6-8.5-21.6-8.8v4.1H52c0.4,0.2,0.5,0.2,0.5,0.6L52.5,8.3z M31.7,15.6
		c5-4.5,11.4-7.1,18.2-7.3v-5c-8,0.2-15.7,3.3-21.6,8.8L31.7,15.6z M22.6,35.1c0.2-6.8,3-13.3,7.7-18.2l-3.6-3.6
		c-5.7,5.8-9,13.6-9.2,21.8H22.6z M30.3,55.1l-1.7-2c-0.5-0.2-0.4-0.3-1-0.8c-0.5-0.4-0.3-0.9-0.5-1S27,51.5,27,51.6
		c-0.2,0.1-0.4,0.1-0.6,0c-0.3-0.1-0.5-0.3-0.6-0.6c-0.3-0.3-0.6-0.7-0.6-1.1c-0.1-0.1-0.4,0-0.6-0.1c-0.2-0.1-0.2-0.4-0.4-0.4
		c-0.2-0.1-0.3-0.1-0.5-0.1l-0.7-1c0,0,0,0.5-0.4,0.5s-1-1-1.2-1c-0.2-0.1-0.3,0.2-0.6,0c-0.3-0.4-0.4-0.8-0.6-1.3
		c-0.1-0.2-0.2-0.5-0.3-0.7c-0.1-0.6,0-1.2,0.1-1.8c0.1-0.3,0.3,0,0.4-0.5c0-0.3,0.3-0.5,0.6-0.5c0,0,0,0,0,0H21
		c0.2,0,0.4,0.1,0.4,0.3l0,0c0.1,0.2,0.4,0,0.6-0.1c0.2-0.1,0-0.3,0-0.4s0.4-0.1,0.6-0.2c0.3-0.1,0.6-0.2,0.7,0l0,0
		c-0.5-1.8-0.8-3.7-0.8-5.6h-5.1c0.3,8.1,3.6,15.9,9.3,21.7L30.3,55.1z M49.8,63.7c-6.7-0.2-13.1-2.8-18.1-7.3L28.2,60
		c5.9,5.4,13.6,8.5,21.6,8.7V63.7z M69.8,56.4c-1.6,1.4-3.3,2.7-5.1,3.7v0.1c-0.4,0.7-0.8,1.4-1.3,2.1c-0.2,0.3-0.3,0.1-0.7,0.4
		c-0.4,0.3-0.2,0.6-0.6,0.8l-0.8,0.3c-0.7,0.7-1.8,0.8-2.6,0.1c0,0,0,0,0,0l0,0l0,0l-0.1-0.1c-0.3-0.2-0.7-0.3-1-0.6l-0.2-0.2
		c-1.8,0.4-3.7,0.7-5.5,0.8v4.9c8-0.3,15.7-3.4,21.6-8.8L69.8,56.4z M78.8,36.9c-0.2,6.8-3,13.2-7.7,18.1l3.6,3.6
		c5.7-5.8,8.9-13.5,9.2-21.6H78.8z M67.2,35h2.9c-0.1-0.8-0.1-1.6-0.3-2.3c-0.1,0.2-0.3,0.5-0.4,0.6c-0.3,0.3-0.6,0.1-1,0.3
		s-0.1,0.4-0.1,0.7c-0.1,0.3,0.3,0.1,0.1,0.4c-0.2,0.3-0.4,0.1-0.6,0.1C67.6,34.9,67.5,34.8,67.2,35z M61.5,26.5l0.8,0.9
		c0.2-0.1,0.4-0.1,0.6-0.1l1.9,0.3c0.6,0.1,0.7,1.1,1,1.2s0.3,0.3,0.3,0.6c0,0.3-0.3,0.2-0.2,0.4c0.1,0.3,0.3,0.4,0.4,0.2
		c0.3-0.4,0.8-0.5,1.2-0.4c1,0.2,0.6,0.7,1,0.8s0.3,0.2,0.4,0.4c0.1,0.2-0.1,0.4-0.3,0.4c-0.2,0.1-0.2,0.3-0.2,0.4s-0.2,0.4-0.3,0.5
		c-0.1,0.1-0.2,0.6,0,0.6s0.4,0.2,0.5,0c0.1-0.2,0.9-1,0.9-1.3v-0.1c-0.2-0.8-0.5-1.5-0.8-2.3l-0.3-0.4c-0.6-0.3-1.2-0.7-1.8-1.2
		c-0.2-0.3,0.1-0.4,0.3-0.6c0.2-0.2,0.3-0.6,0.3-0.9l-0.4-0.5l-1.1-1.6L65,23L61.5,26.5z M51.7,21.8c3.1,0.2,6.1,1.4,8.4,3.5
		l3.6-3.6c-3.3-2.9-7.5-4.6-11.9-4.9L51.7,21.8z M41.3,25.2c2.4-2,5.4-3.2,8.5-3.4v-4.9c-4.4,0.2-8.7,1.9-12,4.8L41.3,25.2z
		 M39,27.8l1-1.3L36.5,23c-3.1,3.3-4.9,7.5-5.1,12h2.2c-0.1-0.2-0.2-0.4-0.2-0.6c0.1-0.3-0.1-1.1-0.1-1.3c0.1-0.2,0.2-0.3,0.4-0.4
		c0.1-0.1,0-0.4,0.1-0.5l0.4-0.6c0.2-0.2,0.1-0.7,0.6-0.9c0.4-0.2,0.6,0.1,0.9,0c0.3-0.1,0.3-0.4,0.3-0.4s-0.1-0.1,0.1-0.4
		c0.2-0.3,1.3-0.6,1.3-0.6s0-0.3,0.7-0.9C38.3,28.1,38.6,27.9,39,27.8z M36.4,35.1c0-0.2,0-0.4,0.1-0.6l-0.6-0.1c-0.5,0-1,0.3-1,0.8
		H36.4z M33,37h-1.7c0.1,1.2,0.2,2.3,0.5,3.5c0.2-0.1,0.3-0.3,0.3-0.4l0,0c0-0.2,0.3-0.1,0.4-0.3s0.1-0.2,0-0.3
		c-0.2-0.1-0.3-0.3-0.4-0.6c-0.1-0.3,0.2-0.5,0.3-0.9c0.1-0.4,0-0.4,0.1-0.7C32.6,37.1,32.5,37.3,33,37L33,37z M40,45.5
		c-1.7-1.8-2.8-4.1-3.4-6.5h-0.1c-0.1-0.3-0.3-0.3-0.6-0.3l-0.1,1.1c0,0.1-0.1,0.6-0.3,0.6c-0.1-0.1-0.2-0.2-0.3-0.3
		c0,0-0.4,0.1-0.4-0.1c-0.1-0.1-0.4-0.4-0.1-0.8c0.3-0.3,0.3,0.3,0.6,0c0.3-0.3-0.3-1.7,0.1-1.7s0.7,0.6,0.8,0.6l0.3-0.1
		c-0.1-0.3-0.1-0.6-0.1-1h-2.2c-0.1,0.3-0.1,1-0.3,1.1s-1-0.1-1.1,0.4c-0.1,0.5,0.3,0.4,0.3,0.9c0,0.5-0.3,0.2-0.1,0.7
		c0.2,0.5,1,0.6,1.1,1.2c0.1,0.3,0.2,0.7,0.4,1c0.1,0.1-0.3,0.4-0.1,0.8c0.3,0.4,0.4,0.8,0.4,1.3c-0.1,0.6,0,1.3,0.2,1.9
		c0.3,1,0.3,0.4,0.6,1c0.1,0.3,0.2,0.7,0.2,1l0.6,0.6L40,45.5z M47.5,49.9c-2.3-0.5-4.4-1.5-6.2-3l-3.4,3.4c2.7,2.4,6.1,4,9.7,4.6
		l-1-0.6c-0.2-0.4-0.5-0.8-0.8-1.1c-0.3-0.3-0.5-0.7-0.4-1.1c0.2-0.1,0.4-0.2,0.4-0.4c0.1-0.5,0.4-1,0.8-1.4L47.5,49.9z M58.7,47.9
		L58,48.2h0.1c0.4,0.1,1.9,0.3,2.3,0.7c0.4,0.3,0.8,0.4,1.2,0.5l1.1-0.1l-0.6-0.6l-0.8-0.3c-0.6-0.3-0.5,0.1-1.1-0.2
		C59.7,48,59.2,47.9,58.7,47.9z M69.6,40.3c0.3-1.1,0.4-2.2,0.5-3.4h-2.9l0.6,0.4c0.3,0.3,0.2,0.6,0.3,1c0.1,0.3,0.3,0.3,0.8,0.7
		c0.4,0.4,0.4,0.9,0.6,1.1L69.6,40.3z M62.1,44.7l-0.3,0.4h0.1c0.3-0.2,0.4,0.1,0.6-0.2c0.2-0.3,0.2-0.6,0.4-0.8
		c0.3-0.2,0.7-0.3,1-0.3c0.3,0.1,0.3-0.1,0.5,0.4c0.1,0.3,0.2,0.7,0.1,1.1c0.1,0.1-0.3,0.6-0.3,1.5C64.2,47.7,64,47,64,47.7v0.1
		l0.3,0.3l0.1-0.3c0.2-0.5,0.5-0.8,0.7-0.5c0.1,0.4,0.2,0.8,0.3,1.2c1.8-2,3.1-4.4,3.9-6.9h-0.1l-1.5,0.3h-1.1c0,0-0.3-0.3-0.4-0.1
		s-0.3,0.8-0.8,0.6s-0.3-0.6-0.4-0.7s0,0.2-0.2,0.5l-0.8,1.2c-0.1,0.2-1.1,0.2-1.2,0.4C62.7,44.2,62.5,44.5,62.1,44.7L62.1,44.7z
		 M58,41.8l1.4,1.4c0-0.3-0.1-0.6-0.2-0.8l-0.6-0.3l-0.3-0.2l0.1-0.3h-0.2L58,41.8z M57.1,46.6l0.6-0.4c-0.2,0-0.4,0.1-0.5,0.3
		L57.1,46.6z M42.7,45.5c1.8,1.5,4,2.4,6.3,2.7v0.3l0.4,0.1c0.4,0.1,0.7-0.1,1-0.3c0.3-0.3,0.3-0.1,0.5-0.1l0.4-0.7
		c0.3-0.1,0.3-0.4,0.4-0.4v1.3c1.6-0.1,3.2-0.6,4.7-1.3c-0.3,0-0.6-0.4-0.7-0.4s0.1,0.5,0.1,0.6s-0.7,0.4-0.8,0.3S54.4,47,54.4,47
		c-0.1,0.2-0.2,0.3-0.4,0.5c-0.4-0.1-0.9-0.4-1.2-0.7c-0.3-0.4-0.5-0.2-0.5-0.2c-0.2,0.1-0.4,0.2-0.6,0.3c-0.2,0.1-0.3,0.4-0.4,0.4
		l-0.4,0.7c-0.3,0.1-0.2-0.2-0.5,0.1c-0.2,0.3-0.6,0.4-1,0.3l-0.4-0.1v-0.3c-0.1-0.2-0.1-0.3-0.1-0.5c0-0.4,0.1-0.8,0.3-1.2
		c0.1-0.2,0.4-0.1,0.7-0.1v-2.7c-1.4-0.2-2.7-0.7-3.9-1.5L42.7,45.5z M43,37.5v-0.4c-0.1,0.1-0.6,0.1-0.5,0.3
		C42.6,37.7,42.7,37.5,43,37.5L43,37.5z M38.6,39.1c0.5,1.9,1.5,3.6,2.7,5l3.3-3.3l-0.4-0.5l0,0c-0.3,0.1-0.1,0.6-0.3,0.7
		c-0.2,0.1-0.3,0.3-0.4,0.5c-0.1,0.2-0.6,0.7-0.9,0.4c-0.3-0.3-0.1-1.5-0.4-1.5c-0.4,0-0.1,0.1,0,0.6s-0.3,0.3-0.4,0.2l-0.7-0.5
		c-0.4-0.3-0.1-0.6-0.1-0.6s-0.3-0.3-0.4-0.3s-0.1,0.3-0.3,0.1c-0.3-0.1-0.3-0.6-0.3-0.6c-0.3,0-0.7-0.1-1-0.2L38.6,39.1z
		 M49.8,23.7c-2.6,0.2-5.1,1.2-7.2,2.9l1.9,1.9c0.3,0.1,0.3,0.3,0.6,0.4c0.4,0.1,0.3-0.1,0.6-0.1c0.3-0.1,0.1,0.2,0.2,0.3
		s0.3-0.1,0.3-0.1c0.2,0.1,0.4,0.1,0.6,0c0.4-0.1,0.2-0.4,0.3-0.6c0.1-0.2,0.1-0.4,0.1-0.6c0-0.3,0.4-0.6,0.5-0.8
		c0.1-0.2,0.3-0.1,0.4,0.1c0.1,0.2-0.1,0.3-0.1,0.5c0.1,0.2,0.6-0.1,1.5-0.2L49.8,23.7z M58.5,26.4c-2-1.5-4.3-2.5-6.8-2.7v3.6
		c0.4,0.1,0.9,0.2,1.3,0.4h0.1c0.2-0.4,0.7-0.7,1.1-0.8c0.2-0.1,0.1-0.3,0.3-0.5c0.2-0.3,0.6,0.1,0.6,0.3c0.1,0.6-0.1,1.2-0.4,1.7
		c-0.2,0.3-0.6,0.5-1,0.6c0.6,0.3,1.1,0.6,1.6,1l0.4-0.3v-0.2l0.4-0.3l1.6-1.6h-0.1c-0.2-0.2-0.7-0.2,0.3-0.8L58.5,26.4z M60.6,28.3
		l-0.3-0.4l-0.4,0.3c0.2,0.3,0.5,0.6,0.4,0.4S60.4,28.6,60.6,28.3L60.6,28.3z M66.5,10.1c0.3-0.2,0.3,0.1,0.6,0.1s0.3-0.2,0.6,0
		c0.3,0.1,0.5,0.4,0.5,0.7c0.1,0.2,0.1,0.4,0.3,0.6c0.1,0.2-0.4,0.4-0.7,0.3c-0.2-0.2-0.4-0.4-0.6-0.6l-0.8-0.6
		C66.3,10.4,66.3,10.2,66.5,10.1L66.5,10.1z M52.2,7c0,0,0.2-0.3,0.4-0.2h0.6l1.1-0.4L55.2,6l0.3-0.2C56.4,5.7,57.3,6,58,6.6
		l0.3,0.3l-0.1,0.3c-0.3,0.2-0.7,0.4-1.1,0.5c-0.3,0-0.5,0-0.8-0.1l-0.7-0.1l-1.4,0.4c-0.3,0-0.7,0-1-0.1l-0.3-0.1l-0.6-0.5L52.2,7
		 M66.9,22.3l1,1.2v0.2L66.9,22.3"/>
	<path class="st4" d="M68.8,72.6c0.2,0,2.7-0.5,6.7-1s5.6-0.3,8.4-1c2.2-0.5,4.1-1.7,5.6-3.4c0,0,0.2-0.1,0.1,0.1
		c-1.5,2.7-3.8,4.9-6.6,6.2c-3.3,1.5-7,2-10.6,1.5c-1.2-0.3-2.9-0.8-4.7-1.3c-1.7-0.5-3.4-0.8-5.1-0.9c0,0-0.1-0.2,0.3-0.3
		c1.5-0.2,2.9-0.6,4.3-1.2c2.5-1.1,4.6-3.6,6.2-5.1c1.7-1.5,4.4-4.3,6-5c0,0,0.1,0,0,0.2c-0.8,1-1.4,2.1-1.9,3.3
		c-0.6,1.7-1.5,3.2-2.6,4.5C73.6,70.6,72,71.8,68.8,72.6C68.8,72.5,68.6,72.6,68.8,72.6 M97.1,55.3c-0.6,3.4-2.4,6.6-5.1,8.8
		c-3.4,3.1-6.3,4.3-7.9,4.6c-1.7,0.4-3.3,0.6-4.8,0.9c-1.4,0.3-2.7,0.6-4.1,1.1c0,0-0.1,0.1-0.1-0.1c0.9-0.7,1.7-1.5,2.3-2.5
		c1.6-2.1,3-7,3-7c0.4-1.4,1-2.8,1.7-4.2c1.1-2.1,2.5-4,4-5.8c0.5-0.4,0.3-0.1,0.2,0c-0.4,0.9-0.7,1.8-1,2.8
		c-0.6,2.7-0.7,5.5-1.1,6.6c-0.4,1.7-1.2,3.3-2.2,4.7c-0.8,1-1.7,1.9-2.7,2.7c-0.3,0.1,0.1,0.1,0.1,0.1c0.7-0.4,1.4-0.9,2.1-1.4
		c1.1-0.9,2.3-1.8,3.6-2.5c1.7-1,3.5-1.5,6.8-3.4c2.3-1.2,4.1-3.2,5.1-5.5C96.9,55.3,97,55,97.1,55.3L97.1,55.3z M89.2,41.2
		c-0.1,0.8-0.1,1.7-0.1,2.5c0.1,1.1,1.3,5.5,1.3,7.9c0,2.4-0.7,4.7-2.1,6.6h0.1c0,0,2.5-3.6,3.7-5.1c1.2-1.5,3.7-3.9,5-5.3
		c1.5-1.7,2.4-3.8,2.7-6h0.1c0.3,2.7,0,5.4-1,7.9c-1,2.5-2.6,4.6-4.6,6.3c-2.1,1.7-4.2,3.2-6.5,4.5c-1.1,0.6-2.1,1.3-3.1,2.2
		c0,0-0.1-0.1-0.1-0.1c0.7-1.3,1.3-2.7,1.7-4.2c0.4-2,0.6-4,0.8-6.1c0.1-2,0.7-9,2-11.2L89.2,41.2z M88.6,30.2
		c-0.1-0.1-0.3-0.3-0.3,0c0,2.5,0.3,5,1,7.4c0.6,2.5,2.3,7.9,2.5,8.7c0.3,1.7,0.3,3.5,0,5.3c0,0,0,0.3,0.2,0.1
		c0.8-1.3,1.7-2.6,2.7-3.8c0.9-1,3-3.7,3.6-5.1c1.3-2.8,1.9-5.8,1.8-8.8c-0.1-2.2-0.5-4.3-1.3-6.3c0,0-0.2-0.1-0.1,0.1
		c0.2,1.2,0.2,2.4,0.1,3.6c-0.3,1.6-0.8,3.2-1.5,4.6c-0.9,2-1.8,4.3-2,5c-0.3,1.3-0.6,2.6-0.8,3.9c-0.1,0.8-0.4,1.5-0.8,2.2
		l-0.1-0.1c0.4-1,0.7-2.2,0.6-3.3c0-2.1-0.5-4.1-1.5-5.9C91.5,35.9,88.7,31.9,88.6,30.2L88.6,30.2z M93.3,15.1
		c-0.2-0.2-0.1,0.1-0.1,0.1c0.9,1.6,1.4,3.4,1.3,5.2c-0.1,3.3-0.6,3.5-0.6,6.4c0,2.2,0.1,4.4,0.4,6.5h-0.2c-0.1-1.4-0.5-2.7-1-4
		c-1.1-2.5-5.8-6.2-5.8-6.2s-1.6-1.5-1.7-2.3s-0.3,0-0.3,0c0.4,1.8,1,3.6,1.7,5.3c1.3,2.9,4.3,5.8,5.2,7.6c0.9,1.8,1.4,1.9,2.1,5.2
		h0.1c0.1-1.5,0.5-3,1.1-4.4c1-3,1.3-2.7,1.8-5.6c0.4-2.1,0.4-4.2-0.1-6.2C97.1,22.1,96.1,18.1,93.3,15.1L93.3,15.1z M92.7,27
		c-0.5-0.9-1-1.7-1.7-2.5c-0.8-1-1.8-1.8-2.7-2.7c-1.3-1-2.7-1.9-3.6-2.7c-0.9-0.8-3.7-4.7-3.7-7.4c0.5,1,1.2,2,2,2.8
		c1.1,1.1,4.1,2.7,5.2,3.8c1.4,1.1,2.4,2.6,3,4.3h0.2c0,0-1.3-3.4-1.6-4.6c-0.3-1.8-0.8-3.6-1.3-5.3c-0.5-1.6-1.5-2.9-2.9-3.7
		l0.1-0.1c0,0,5,0.8,6.9,7.3c0.6,1.9-0.1,6.3,0.1,8c0.1,1.7,0.2,2.9,0.2,2.9L92.7,27z M76.1,4.4l3.2,1.1c1.9,0.6,3.6,1.7,5,3.1
		c1.7,1.9,2.9,4.2,3.4,6.7c0.1,0.6,0.4,1.1,0.7,1.7c0.1,0-0.1,0.1-0.1,0.1s-4.3-3.4-5.6-4.9S80,8.1,78.8,7L76.1,4.4z M20.4,75.9
		c0,0,4.3,4.9,10.6,5c3.1,0,6-1,8.5-2.7c1.8-1.3,3.6-2.5,5.5-3.6c1.6-0.8,3.9-0.1,3.9-0.1c-1.8,0.7-3.6,1.6-5.1,2.8
		c-2.1,1.5-4.1,3.2-6,5L40,84c1.3-1.8,2.9-3.4,4.6-4.8c3-2.5,4.7-3.5,6.5-4.3c4.3,2.1,8,5.2,11,8.9l2.2-1.8c0,0-5-5.1-11-7.7
		c0,0,0.6-0.4,3.2-0.1c1.1,0.1,2.2,1,3.5,1.9c1.7,1.3,3.5,2.4,5.4,3.3c1.8,0.7,3.8,1.2,5.7,1.2c4.1-0.1,8.1-1.9,10.7-5.1
		c0,0,0-0.1-0.1-0.1c-2.3,1.1-3.6,2-7.4,2c-2.7-0.2-5.4-0.9-7.9-2.2c-3.2-1.5-5.5-2.5-9.3-2.5c-3.9-0.1-5.6,0.6-6,0.8
		c-0.4,0.1-1.8-0.8-5.2-0.8c-2.9,0-5.9,0.7-8.5,2c-2,1-5.6,3-10,3c-2.4,0-4.7-0.7-6.7-2C20.4,75.7,20.4,75.8,20.4,75.9z M33.3,72.7
		c-0.2,0-2.8-0.5-6.7-1s-5.7-0.2-8.6-0.9c-2.1-0.5-4.1-1.7-5.5-3.3c0,0-0.2-0.1-0.1,0.1c1.5,2.7,3.8,4.9,6.6,6.2
		c4.6,2.3,9.6,1.6,10.9,1.3c1.2-0.3,2.9-0.8,4.7-1.3c1.7-0.5,3.4-0.8,5.2-0.9c0,0,0.1-0.3-0.3-0.3c-1.5-0.1-2.9-0.5-4.3-1.2
		c-3.5-1.8-4.7-3.5-6.3-5c-1.7-1.5-4.4-4.3-6-5c0,0-0.1,0,0,0.2c0.8,1,1.4,2.1,1.9,3.3c0.6,1.6,1.5,3.1,2.6,4.4
		c1.2,1.3,2.9,2.5,6.1,3.2C33.3,72.6,33.4,72.7,33.3,72.7z M4.8,55.6c0.7,3.4,2.5,6.5,5.1,8.8c3.4,3.1,6.5,4.3,8.2,4.6l4.8,0.8
		c1.3,0.2,2.7,0.6,3.9,1c0,0,0.1,0.1,0.1-0.1c-0.8-0.8-1.6-1.6-2.2-2.5c-1.6-2.1-3-7-3-7c-0.4-1.2-0.9-2.4-1.5-3.6
		c-0.8-1.7-3.7-5.9-4.3-6.3c-0.5-0.4-0.3-0.1-0.2,0c0.4,0.9,0.7,1.8,1,2.7c0.3,1.7,0.8,5.5,1.2,6.6c0.4,1.7,1.2,3.4,2.3,4.8
		c0.8,1,1.7,2,2.7,2.7c0.3,0.1-0.1,0.1-0.1,0.1c-0.8-0.4-1.5-1-2.2-1.5c-0.9-0.8-1.9-1.5-2.9-2.2c-1.8-1-4.1-1.8-7.4-3.7
		S5.7,57,5,55.5C4.9,55.6,4.7,55.3,4.8,55.6L4.8,55.6z M12.3,41.6c0.1,0.9,0.2,1.7,0.1,2.6c-0.1,1.1-1.2,5.5-1.1,7.8
		c0,2.4,0.8,4.7,2.2,6.6h-0.1c0,0-2.5-3.6-3.7-5.1c-1.1-1.5-3.8-3.8-5-5.3c-1.5-1.7-2.5-3.7-3-5.8H1.6c-0.3,2.6,0.1,5.3,1.1,7.7
		c1,2.5,2.6,4.7,4.7,6.3c2.1,1.7,4.2,3.2,6.5,4.5c1.1,0.6,2.1,1.3,3.1,2.2c0,0,0.1,0,0.1-0.1c-0.7-1.3-1.3-2.7-1.7-4.2
		c-0.4-2-0.6-4-0.8-6.1c-0.1-2-0.9-9.1-2.2-11.3L12.3,41.6z M12.9,30.3c0.1-0.1,0.3-0.3,0.3,0c-0.1,2.5-0.4,5-0.8,7.4
		c-0.6,2.6-2.3,7.9-2.5,8.7c-0.3,1.7-0.3,3.5,0,5.3c0,0,0,0.3-0.2,0.1c-0.2-0.2-1.8-2.7-2.7-3.7s-3.1-3.7-3.7-5.1
		c-1.3-3-1.9-6.3-1.7-9.6c0.3-4.3,1.3-5.4,1.3-5.4S3,27.9,3,28.1c-0.2,1.1-0.2,2.3-0.1,3.4c0.3,1.8,0.9,3.5,1.8,5.1
		c0.8,1.5,1.4,3,1.9,4.6c0.4,1.2,0.6,2.4,0.8,3.7c0.1,0.8,0.4,1.5,0.8,2.2h0.1c-0.4-1.1-0.6-2.2-0.6-3.4c-0.1-2.1,0.5-4.1,1.5-5.9
		C10.1,36.1,12.8,32.1,12.9,30.3L12.9,30.3z M7.9,15.5c0.1-0.2,0.3,0,0.3,0s-1.3,1.7-1.3,5c0.1,3.3,0.6,3.9,0.7,6.9
		c0,2.1-0.1,4.3-0.4,6.4h0.2c0.1-1.5,0.4-3,1.1-4.3c1.2-2.4,5.8-6.2,5.8-6.2s1.4-1.4,1.6-2.3c0.2-0.9,0.2,0.1,0.2,0.1
		c-0.2,1.8-0.8,3.5-1.5,5.1c-1.3,2.9-4.1,5.8-5,7.6S7.9,36,7.3,39.3H7.1c-0.2-1.6-0.6-3.1-1.1-4.6c-1-3-1.3-2.6-1.8-5.4
		c-0.4-2.2-0.4-4.4,0.1-6.6C4.8,20,6.1,17.6,7.9,15.5L7.9,15.5z M8.7,27.4c0.5-0.9,1.1-1.8,1.8-2.5c0.9-1,1.8-1.8,2.8-2.7
		c1.2-1,2.7-2,3.6-2.8c0.9-0.8,3.5-4.7,3.4-7.4c-0.5,1-1.1,2-1.8,2.8c-1.1,1.1-4.1,2.9-5.3,3.9c-1.4,1.2-2.4,2.6-3,4.3H10
		c0,0,1.2-3.4,1.5-4.7c0.3-1.8,0.8-3.6,1.3-5.3c0.4-1.5,1.4-2.8,2.8-3.7c0.1,0,0-0.1,0-0.1s-5.1,0.8-6.9,7.3
		c-0.6,1.9,0.2,6.3,0.1,8.1C8.7,26.3,8.7,27.4,8.7,27.4l0.1-0.1v-0.1 M24.9,4.7l-2.9,1c-1.9,0.6-3.7,1.7-5.1,3.2
		c-1.7,1.9-2.9,4.3-3.4,6.8c-0.5,1.9-0.6,1.8-0.6,1.8s4.4-3.4,5.6-4.9c1.3-1.5,2.8-4.2,3.9-5.3L24.9,4.7"/>
</g>
</svg>
