<?xml version="1.0" encoding="utf-8"?>
<!-- Generator: Adobe Illustrator 23.0.3, SVG Export Plug-In . SVG Version: 6.00 Build 0)  -->
<svg version="1.1" id="Layer_1" xmlns="http://www.w3.org/2000/svg" xmlns:xlink="http://www.w3.org/1999/xlink" x="0px" y="0px"
	 viewBox="0 0 30 30" style="enable-background:new 0 0 30 30;" xml:space="preserve">
<style type="text/css">
	.st0{fill:none;}
	.st1{fill:#F7643B;}
</style>
<title></title>
<g>
	<g id="Interface-Solid">
		<g id="interface-solid-multimedia-play-button-1">
			<path class="st0" d="M15,2.5C8.1,2.5,2.5,8.1,2.5,15S8.1,27.5,15,27.5S27.5,21.9,27.5,15S21.9,2.5,15,2.5z M20,16.6L20,16.6
				l-5.6,3.9c-0.9,0.6-2.2,0.4-2.8-0.5c-0.2-0.3-0.4-0.7-0.4-1.1V11c0-1.1,0.9-2,2-2c0.4,0,0.8,0.1,1.1,0.4l5.6,3.9
				c0.9,0.6,1.1,1.9,0.5,2.8C20.3,16.3,20.2,16.5,20,16.6L20,16.6z"/>
			<path class="st1" d="M15,0C6.7,0,0,6.7,0,15s6.7,15,15,15s15-6.7,15-15S23.3,0,15,0z M15,27.5C8.1,27.5,2.5,21.9,2.5,15
				S8.1,2.5,15,2.5S27.5,8.1,27.5,15S21.9,27.5,15,27.5z"/>
			<path class="st1" d="M20,13.4l-5.6-3.9c-0.9-0.6-2.2-0.4-2.8,0.5c-0.2,0.3-0.4,0.7-0.4,1.1V19c0,1.1,0.9,2,2,2
				c0.4,0,0.8-0.1,1.1-0.4l5.6-3.9l0,0c0.9-0.6,1.1-1.9,0.5-2.8C20.3,13.7,20.2,13.5,20,13.4L20,13.4z"/>
		</g>
	</g>
</g>
</svg>
